<?xml version="1.0" encoding="us-ascii" standalone="no"?><svg xmlns="http://www.w3.org/2000/svg" xmlns:xlink="http://www.w3.org/1999/xlink" contentStyleType="text/css" height="1003px" preserveAspectRatio="none" style="width:5454px;height:1003px;background:#FFFFFF;" version="1.1" viewBox="0 0 5454 1003" width="5454px" zoomAndPan="magnify"><defs/><g><!--cluster waterlog--><g id="cluster_waterlog"><path d="M184.5,330 L257.5,330 A3.75,3.75 0 0 1 260,332.5 L267,352.2969 L4913.5,352.2969 A2.5,2.5 0 0 1 4916,354.7969 L4916,993.5 A2.5,2.5 0 0 1 4913.5,996 L184.5,996 A2.5,2.5 0 0 1 182,993.5 L182,332.5 A2.5,2.5 0 0 1 184.5,330 " fill="none" style="stroke:#000000;stroke-width:1.5;"/><line style="stroke:#000000;stroke-width:1.5;" x1="182" x2="267" y1="352.2969" y2="352.2969"/><text fill="#000000" font-family="sans-serif" font-size="14" font-weight="bold" lengthAdjust="spacing" textLength="72" x="186" y="344.9951">waterlog</text></g><!--cluster models--><g id="cluster_models"><path d="M4564.5,462.5 L4623.5,462.5 A3.75,3.75 0 0 1 4626,465 L4633,484.7969 L4889.5,484.7969 A2.5,2.5 0 0 1 4892,487.2969 L4892,969.5 A2.5,2.5 0 0 1 4889.5,972 L4564.5,972 A2.5,2.5 0 0 1 4562,969.5 L4562,465 A2.5,2.5 0 0 1 4564.5,462.5 " fill="none" style="stroke:#000000;stroke-width:1.5;"/><line style="stroke:#000000;stroke-width:1.5;" x1="4562" x2="4633" y1="484.7969" y2="484.7969"/><text fill="#000000" font-family="sans-serif" font-size="14" font-weight="bold" lengthAdjust="spacing" textLength="58" x="4566" y="477.4951">models</text></g><!--cluster personal_data_card_model.dart--><g id="cluster_personal_data_card_model.dart"><path d="M4588.5,505.5 L4843.5,505.5 A3.75,3.75 0 0 1 4846,508 L4853,527.7969 L4865.5,527.7969 A2.5,2.5 0 0 1 4868,530.2969 L4868,945.5 A2.5,2.5 0 0 1 4865.5,948 L4588.5,948 A2.5,2.5 0 0 1 4586,945.5 L4586,508 A2.5,2.5 0 0 1 4588.5,505.5 " fill="none" style="stroke:#000000;stroke-width:1.5;"/><line style="stroke:#000000;stroke-width:1.5;" x1="4586" x2="4853" y1="527.7969" y2="527.7969"/><text fill="#000000" font-family="sans-serif" font-size="14" font-weight="bold" lengthAdjust="spacing" textLength="254" x="4590" y="520.4951">personal_data_card_model.dart</text></g><!--cluster presentation--><g id="cluster_presentation"><path d="M809.5,378.5 L915.5,378.5 A3.75,3.75 0 0 1 918,381 L925,400.7969 L4535.5,400.7969 A2.5,2.5 0 0 1 4538,403.2969 L4538,756 A2.5,2.5 0 0 1 4535.5,758.5 L809.5,758.5 A2.5,2.5 0 0 1 807,756 L807,381 A2.5,2.5 0 0 1 809.5,378.5 " fill="none" style="stroke:#000000;stroke-width:1.5;"/><line style="stroke:#000000;stroke-width:1.5;" x1="807" x2="925" y1="400.7969" y2="400.7969"/><text fill="#000000" font-family="sans-serif" font-size="14" font-weight="bold" lengthAdjust="spacing" textLength="105" x="811" y="393.4951">presentation</text></g><!--cluster show_calculated_intake.dart--><g id="cluster_show_calculated_intake.dart"><path d="M3863.5,521.5 L4096.5,521.5 A3.75,3.75 0 0 1 4099,524 L4106,543.7969 L4511.5,543.7969 A2.5,2.5 0 0 1 4514,546.2969 L4514,651 A2.5,2.5 0 0 1 4511.5,653.5 L3863.5,653.5 A2.5,2.5 0 0 1 3861,651 L3861,524 A2.5,2.5 0 0 1 3863.5,521.5 " fill="none" style="stroke:#000000;stroke-width:1.5;"/><line style="stroke:#000000;stroke-width:1.5;" x1="3861" x2="4106" y1="543.7969" y2="543.7969"/><text fill="#000000" font-family="sans-serif" font-size="14" font-weight="bold" lengthAdjust="spacing" textLength="232" x="3865" y="536.4951">show_calculated_intake.dart</text></g><!--cluster waterlog.dart--><g id="cluster_waterlog.dart"><path d="M3517.5,530 L3630.5,530 A3.75,3.75 0 0 1 3633,532.5 L3640,552.2969 L3834.5,552.2969 A2.5,2.5 0 0 1 3837,554.7969 L3837,642.5 A2.5,2.5 0 0 1 3834.5,645 L3517.5,645 A2.5,2.5 0 0 1 3515,642.5 L3515,532.5 A2.5,2.5 0 0 1 3517.5,530 " fill="none" style="stroke:#000000;stroke-width:1.5;"/><line style="stroke:#000000;stroke-width:1.5;" x1="3515" x2="3640" y1="552.2969" y2="552.2969"/><text fill="#000000" font-family="sans-serif" font-size="14" font-weight="bold" lengthAdjust="spacing" textLength="112" x="3519" y="544.9951">waterlog.dart</text></g><!--cluster water_intake_tracker.dart--><g id="cluster_water_intake_tracker.dart"><path d="M2868.5,521.5 L3080.5,521.5 A3.75,3.75 0 0 1 3083,524 L3090,543.7969 L3488.5,543.7969 A2.5,2.5 0 0 1 3491,546.2969 L3491,651 A2.5,2.5 0 0 1 3488.5,653.5 L2868.5,653.5 A2.5,2.5 0 0 1 2866,651 L2866,524 A2.5,2.5 0 0 1 2868.5,521.5 " fill="none" style="stroke:#000000;stroke-width:1.5;"/><line style="stroke:#000000;stroke-width:1.5;" x1="2866" x2="3090" y1="543.7969" y2="543.7969"/><text fill="#000000" font-family="sans-serif" font-size="14" font-weight="bold" lengthAdjust="spacing" textLength="211" x="2870" y="536.4951">water_intake_tracker.dart</text></g><!--cluster widgets--><g id="cluster_widgets"><path d="M833.5,421.5 L898.5,421.5 A3.75,3.75 0 0 1 901,424 L908,443.7969 L2839.5,443.7969 A2.5,2.5 0 0 1 2842,446.2969 L2842,732 A2.5,2.5 0 0 1 2839.5,734.5 L833.5,734.5 A2.5,2.5 0 0 1 831,732 L831,424 A2.5,2.5 0 0 1 833.5,421.5 " fill="none" style="stroke:#000000;stroke-width:1.5;"/><line style="stroke:#000000;stroke-width:1.5;" x1="831" x2="908" y1="443.7969" y2="443.7969"/><text fill="#000000" font-family="sans-serif" font-size="14" font-weight="bold" lengthAdjust="spacing" textLength="64" x="835" y="436.4951">widgets</text></g><!--cluster list_view_builder.dart--><g id="cluster_list_view_builder.dart"><path d="M857.5,464.5 L1031.5,464.5 A3.75,3.75 0 0 1 1034,467 L1041,486.7969 L1549.5,486.7969 A2.5,2.5 0 0 1 1552,489.2969 L1552,708 A2.5,2.5 0 0 1 1549.5,710.5 L857.5,710.5 A2.5,2.5 0 0 1 855,708 L855,467 A2.5,2.5 0 0 1 857.5,464.5 " fill="none" style="stroke:#000000;stroke-width:1.5;"/><line style="stroke:#000000;stroke-width:1.5;" x1="855" x2="1041" y1="486.7969" y2="486.7969"/><text fill="#000000" font-family="sans-serif" font-size="14" font-weight="bold" lengthAdjust="spacing" textLength="173" x="859" y="479.4951">list_view_builder.dart</text></g><!--cluster radio_option.dart--><g id="cluster_radio_option.dart"><path d="M1578.5,505.5 L1721.5,505.5 A3.75,3.75 0 0 1 1724,508 L1731,527.7969 L2177.5,527.7969 A2.5,2.5 0 0 1 2180,530.2969 L2180,667 A2.5,2.5 0 0 1 2177.5,669.5 L1578.5,669.5 A2.5,2.5 0 0 1 1576,667 L1576,508 A2.5,2.5 0 0 1 1578.5,505.5 " fill="none" style="stroke:#000000;stroke-width:1.5;"/><line style="stroke:#000000;stroke-width:1.5;" x1="1576" x2="1731" y1="527.7969" y2="527.7969"/><text fill="#000000" font-family="sans-serif" font-size="14" font-weight="bold" lengthAdjust="spacing" textLength="142" x="1580" y="520.4951">radio_option.dart</text></g><!--cluster text_option.dart--><g id="cluster_text_option.dart"><path d="M2206.5,497.5 L2341.5,497.5 A3.75,3.75 0 0 1 2344,500 L2351,519.7969 L2815.5,519.7969 A2.5,2.5 0 0 1 2818,522.2969 L2818,675 A2.5,2.5 0 0 1 2815.5,677.5 L2206.5,677.5 A2.5,2.5 0 0 1 2204,675 L2204,500 A2.5,2.5 0 0 1 2206.5,497.5 " fill="none" style="stroke:#000000;stroke-width:1.5;"/><line style="stroke:#000000;stroke-width:1.5;" x1="2204" x2="2351" y1="519.7969" y2="519.7969"/><text fill="#000000" font-family="sans-serif" font-size="14" font-weight="bold" lengthAdjust="spacing" textLength="134" x="2208" y="512.4951">text_option.dart</text></g><!--cluster services--><g id="cluster_services"><path d="M208.5,373 L275.5,373 A3.75,3.75 0 0 1 278,375.5 L285,395.2969 L780.5,395.2969 A2.5,2.5 0 0 1 783,397.7969 L783,961.5 A2.5,2.5 0 0 1 780.5,964 L208.5,964 A2.5,2.5 0 0 1 206,961.5 L206,375.5 A2.5,2.5 0 0 1 208.5,373 " fill="none" style="stroke:#000000;stroke-width:1.5;"/><line style="stroke:#000000;stroke-width:1.5;" x1="206" x2="285" y1="395.2969" y2="395.2969"/><text fill="#000000" font-family="sans-serif" font-size="14" font-weight="bold" lengthAdjust="spacing" textLength="66" x="210" y="387.9951">services</text></g><!--cluster user_provider.dart--><g id="cluster_user_provider.dart"><path d="M453.5,416 L603.5,416 A3.75,3.75 0 0 1 606,418.5 L613,438.2969 L756.5,438.2969 A2.5,2.5 0 0 1 759,440.7969 L759,937.5 A2.5,2.5 0 0 1 756.5,940 L453.5,940 A2.5,2.5 0 0 1 451,937.5 L451,418.5 A2.5,2.5 0 0 1 453.5,416 " fill="none" style="stroke:#000000;stroke-width:1.5;"/><line style="stroke:#000000;stroke-width:1.5;" x1="451" x2="613" y1="438.2969" y2="438.2969"/><text fill="#000000" font-family="sans-serif" font-size="14" font-weight="bold" lengthAdjust="spacing" textLength="149" x="455" y="430.9951">user_provider.dart</text></g><!--cluster intake_calculator.dart--><g id="cluster_intake_calculator.dart"><path d="M232.5,530 L414.5,530 A3.75,3.75 0 0 1 417,532.5 L424,552.2969 L424.5,552.2969 A2.5,2.5 0 0 1 427,554.7969 L427,642.5 A2.5,2.5 0 0 1 424.5,645 L232.5,645 A2.5,2.5 0 0 1 230,642.5 L230,532.5 A2.5,2.5 0 0 1 232.5,530 " fill="none" style="stroke:#000000;stroke-width:1.5;"/><line style="stroke:#000000;stroke-width:1.5;" x1="230" x2="424" y1="552.2969" y2="552.2969"/><text fill="#000000" font-family="sans-serif" font-size="14" font-weight="bold" lengthAdjust="spacing" textLength="181" x="234" y="544.9951">intake_calculator.dart</text></g><!--cluster flutter--><g id="cluster_flutter"><path d="M1918.5,6 L1973.5,6 A3.75,3.75 0 0 1 1976,8.5 L1983,28.2969 L3143.5,28.2969 A2.5,2.5 0 0 1 3146,30.7969 L3146,303.5 A2.5,2.5 0 0 1 3143.5,306 L1918.5,306 A2.5,2.5 0 0 1 1916,303.5 L1916,8.5 A2.5,2.5 0 0 1 1918.5,6 " fill="none" style="stroke:#000000;stroke-width:1.5;"/><line style="stroke:#000000;stroke-width:1.5;" x1="1916" x2="1983" y1="28.2969" y2="28.2969"/><text fill="#000000" font-family="sans-serif" font-size="14" font-weight="bold" lengthAdjust="spacing" textLength="54" x="1920" y="20.9951">flutter</text></g><!--cluster src--><g id="cluster_src"><path d="M1942.5,49 L1968.5,49 A3.75,3.75 0 0 1 1971,51.5 L1978,71.2969 L3119.5,71.2969 A2.5,2.5 0 0 1 3122,73.7969 L3122,279.5 A2.5,2.5 0 0 1 3119.5,282 L1942.5,282 A2.5,2.5 0 0 1 1940,279.5 L1940,51.5 A2.5,2.5 0 0 1 1942.5,49 " fill="none" style="stroke:#000000;stroke-width:1.5;"/><line style="stroke:#000000;stroke-width:1.5;" x1="1940" x2="1978" y1="71.2969" y2="71.2969"/><text fill="#000000" font-family="sans-serif" font-size="14" font-weight="bold" lengthAdjust="spacing" textLength="25" x="1944" y="63.9951">src</text></g><!--cluster widgets--><g id="cluster_widgets"><path d="M2220.5,92 L2285.5,92 A3.75,3.75 0 0 1 2288,94.5 L2295,114.2969 L3095.5,114.2969 A2.5,2.5 0 0 1 3098,116.7969 L3098,255.5 A2.5,2.5 0 0 1 3095.5,258 L2220.5,258 A2.5,2.5 0 0 1 2218,255.5 L2218,94.5 A2.5,2.5 0 0 1 2220.5,92 " fill="none" style="stroke:#000000;stroke-width:1.5;"/><line style="stroke:#000000;stroke-width:1.5;" x1="2218" x2="2295" y1="114.2969" y2="114.2969"/><text fill="#000000" font-family="sans-serif" font-size="14" font-weight="bold" lengthAdjust="spacing" textLength="64" x="2222" y="106.9951">widgets</text></g><!--cluster icon.dart--><g id="cluster_icon.dart"><path d="M2982.5,135 L3057.5,135 A3.75,3.75 0 0 1 3060,137.5 L3067,157.2969 L3071.5,157.2969 A2.5,2.5 0 0 1 3074,159.7969 L3074,231.5 A2.5,2.5 0 0 1 3071.5,234 L2982.5,234 A2.5,2.5 0 0 1 2980,231.5 L2980,137.5 A2.5,2.5 0 0 1 2982.5,135 " fill="none" style="stroke:#000000;stroke-width:1.5;"/><line style="stroke:#000000;stroke-width:1.5;" x1="2980" x2="3067" y1="157.2969" y2="157.2969"/><text fill="#000000" font-family="sans-serif" font-size="14" font-weight="bold" lengthAdjust="spacing" textLength="74" x="2984" y="149.9951">icon.dart</text></g><!--cluster framework.dart--><g id="cluster_framework.dart"><path d="M2490.5,135 L2618.5,135 A3.75,3.75 0 0 1 2621,137.5 L2628,157.2969 L2953.5,157.2969 A2.5,2.5 0 0 1 2956,159.7969 L2956,231.5 A2.5,2.5 0 0 1 2953.5,234 L2490.5,234 A2.5,2.5 0 0 1 2488,231.5 L2488,137.5 A2.5,2.5 0 0 1 2490.5,135 " fill="none" style="stroke:#000000;stroke-width:1.5;"/><line style="stroke:#000000;stroke-width:1.5;" x1="2488" x2="2628" y1="157.2969" y2="157.2969"/><text fill="#000000" font-family="sans-serif" font-size="14" font-weight="bold" lengthAdjust="spacing" textLength="127" x="2492" y="149.9951">framework.dart</text></g><!--cluster editable_text.dart--><g id="cluster_editable_text.dart"><path d="M2244.5,135 L2392.5,135 A3.75,3.75 0 0 1 2395,137.5 L2402,157.2969 L2461.5,157.2969 A2.5,2.5 0 0 1 2464,159.7969 L2464,231.5 A2.5,2.5 0 0 1 2461.5,234 L2244.5,234 A2.5,2.5 0 0 1 2242,231.5 L2242,137.5 A2.5,2.5 0 0 1 2244.5,135 " fill="none" style="stroke:#000000;stroke-width:1.5;"/><line style="stroke:#000000;stroke-width:1.5;" x1="2242" x2="2402" y1="157.2969" y2="157.2969"/><text fill="#000000" font-family="sans-serif" font-size="14" font-weight="bold" lengthAdjust="spacing" textLength="147" x="2246" y="149.9951">editable_text.dart</text></g><!--cluster foundation--><g id="cluster_foundation"><path d="M1966.5,92 L2057.5,92 A3.75,3.75 0 0 1 2060,94.5 L2067,114.2969 L2191.5,114.2969 A2.5,2.5 0 0 1 2194,116.7969 L2194,255.5 A2.5,2.5 0 0 1 2191.5,258 L1966.5,258 A2.5,2.5 0 0 1 1964,255.5 L1964,94.5 A2.5,2.5 0 0 1 1966.5,92 " fill="none" style="stroke:#000000;stroke-width:1.5;"/><line style="stroke:#000000;stroke-width:1.5;" x1="1964" x2="2067" y1="114.2969" y2="114.2969"/><text fill="#000000" font-family="sans-serif" font-size="14" font-weight="bold" lengthAdjust="spacing" textLength="90" x="1968" y="106.9951">foundation</text></g><!--cluster change_notifier.dart--><g id="cluster_change_notifier.dart"><path d="M1990.5,135 L2157.5,135 A3.75,3.75 0 0 1 2160,137.5 L2167,157.2969 L2167.5,157.2969 A2.5,2.5 0 0 1 2170,159.7969 L2170,231.5 A2.5,2.5 0 0 1 2167.5,234 L1990.5,234 A2.5,2.5 0 0 1 1988,231.5 L1988,137.5 A2.5,2.5 0 0 1 1990.5,135 " fill="none" style="stroke:#000000;stroke-width:1.5;"/><line style="stroke:#000000;stroke-width:1.5;" x1="1988" x2="2167" y1="157.2969" y2="157.2969"/><text fill="#000000" font-family="sans-serif" font-size="14" font-weight="bold" lengthAdjust="spacing" textLength="166" x="1992" y="149.9951">change_notifier.dart</text></g><!--cluster dart--><g id="cluster_dart"><path d="M8.5,495 L44.5,495 A3.75,3.75 0 0 1 47,497.5 L54,517.2969 L155.5,517.2969 A2.5,2.5 0 0 1 158,519.7969 L158,658.5 A2.5,2.5 0 0 1 155.5,661 L8.5,661 A2.5,2.5 0 0 1 6,658.5 L6,497.5 A2.5,2.5 0 0 1 8.5,495 " fill="none" style="stroke:#000000;stroke-width:1.5;"/><line style="stroke:#000000;stroke-width:1.5;" x1="6" x2="54" y1="517.2969" y2="517.2969"/><text fill="#000000" font-family="sans-serif" font-size="14" font-weight="bold" lengthAdjust="spacing" textLength="35" x="10" y="509.9951">dart</text></g><!--cluster core--><g id="cluster_core"><path d="M32.5,538 L68.5,538 A3.75,3.75 0 0 1 71,540.5 L78,560.2969 L131.5,560.2969 A2.5,2.5 0 0 1 134,562.7969 L134,634.5 A2.5,2.5 0 0 1 131.5,637 L32.5,637 A2.5,2.5 0 0 1 30,634.5 L30,540.5 A2.5,2.5 0 0 1 32.5,538 " fill="none" style="stroke:#000000;stroke-width:1.5;"/><line style="stroke:#000000;stroke-width:1.5;" x1="30" x2="78" y1="560.2969" y2="560.2969"/><text fill="#000000" font-family="sans-serif" font-size="14" font-weight="bold" lengthAdjust="spacing" textLength="35" x="34" y="552.9951">core</text></g><!--cluster null--><g id="cluster_null"><path d="M4942.5,808.5 L4973.5,808.5 A3.75,3.75 0 0 1 4976,811 L4983,830.7969 L5444.5,830.7969 A2.5,2.5 0 0 1 5447,833.2969 L5447,905 A2.5,2.5 0 0 1 5444.5,907.5 L4942.5,907.5 A2.5,2.5 0 0 1 4940,905 L4940,811 A2.5,2.5 0 0 1 4942.5,808.5 " fill="none" style="stroke:#000000;stroke-width:1.5;"/><line style="stroke:#000000;stroke-width:1.5;" x1="4940" x2="4983" y1="830.7969" y2="830.7969"/><text fill="#000000" font-family="sans-serif" font-size="14" font-weight="bold" lengthAdjust="spacing" textLength="30" x="4944" y="823.4951">null</text></g><!--class PersonalDataCardModel--><g id="elem_PersonalDataCardModel"><rect codeLine="3" fill="#F1F1F1" height="113.1875" id="PersonalDataCardModel" rx="2.5" ry="2.5" style="stroke:#181818;stroke-width:0.5;" width="203" x="4609.5" y="540.5"/><ellipse cx="4624.5" cy="556.5" fill="#ADD1B2" rx="11" ry="11" style="stroke:#181818;stroke-width:1.0;"/><path d="M4626.8438,552.1719 C4625.9063,551.7344 4625.3125,551.5938 4624.4375,551.5938 C4621.8125,551.5938 4619.8125,553.6719 4619.8125,556.3906 L4619.8125,557.5156 C4619.8125,560.0938 4621.9219,561.9844 4624.8125,561.9844 C4626.0313,561.9844 4627.1875,561.6875 4627.9375,561.1406 C4628.5156,560.7344 4628.8438,560.2813 4628.8438,559.8906 C4628.8438,559.4375 4628.4531,559.0469 4627.9844,559.0469 C4627.7656,559.0469 4627.5625,559.125 4627.375,559.3125 C4626.9219,559.7969 4626.9219,559.7969 4626.7344,559.8906 C4626.3125,560.1563 4625.625,560.2813 4624.8594,560.2813 C4622.8125,560.2813 4621.5156,559.1875 4621.5156,557.4844 L4621.5156,556.3906 C4621.5156,554.6094 4622.7656,553.2969 4624.5,553.2969 C4625.0781,553.2969 4625.6875,553.4531 4626.1563,553.7031 C4626.6406,553.9844 4626.8125,554.2031 4626.9063,554.6094 C4626.9688,555.0156 4627,555.1406 4627.1406,555.2656 C4627.2813,555.4063 4627.5156,555.5156 4627.7344,555.5156 C4628,555.5156 4628.2656,555.375 4628.4375,555.1563 C4628.5469,555 4628.5781,554.8125 4628.5781,554.3906 L4628.5781,552.9688 C4628.5781,552.5313 4628.5625,552.4063 4628.4688,552.25 C4628.3125,551.9844 4628.0313,551.8438 4627.7344,551.8438 C4627.4375,551.8438 4627.2344,551.9375 4627.0156,552.25 L4626.8438,552.1719 Z " fill="#000000"/><text fill="#000000" font-family="sans-serif" font-size="14" lengthAdjust="spacing" textLength="171" x="4638.5" y="561.3467">PersonalDataCardModel</text><line style="stroke:#181818;stroke-width:0.5;" x1="4610.5" x2="4811.5" y1="572.5" y2="572.5"/><ellipse cx="4620.5" cy="586.1484" fill="none" rx="3" ry="3" style="stroke:#038048;stroke-width:1.0;"/><text fill="#000000" font-family="sans-serif" font-size="14" lengthAdjust="spacing" textLength="71" x="4629.5" y="589.4951">Icon? icon</text><ellipse cx="4620.5" cy="602.4453" fill="none" rx="3" ry="3" style="stroke:#038048;stroke-width:1.0;"/><text fill="#000000" font-family="sans-serif" font-size="14" lengthAdjust="spacing" textLength="147" x="4629.5" y="605.792">EntryFieldType type</text><ellipse cx="4620.5" cy="618.7422" fill="none" rx="3" ry="3" style="stroke:#038048;stroke-width:1.0;"/><text fill="#000000" font-family="sans-serif" font-size="14" lengthAdjust="spacing" textLength="79" x="4629.5" y="622.0889">String title</text><ellipse cx="4620.5" cy="635.0391" fill="none" rx="3" ry="3" style="stroke:#038048;stroke-width:1.0;"/><text fill="#000000" font-family="sans-serif" font-size="14" lengthAdjust="spacing" textLength="101" x="4629.5" y="638.3857">dynamic value</text><line style="stroke:#181818;stroke-width:0.5;" x1="4610.5" x2="4811.5" y1="645.6875" y2="645.6875"/></g><!--class EntryFieldType--><g id="elem_EntryFieldType"><rect codeLine="13" fill="#F1F1F1" height="129.4844" id="EntryFieldType" rx="2.5" ry="2.5" style="stroke:#181818;stroke-width:0.5;" width="231" x="4602.5" y="803"/><ellipse cx="4659.25" cy="819" fill="#ADD1B2" rx="11" ry="11" style="stroke:#181818;stroke-width:1.0;"/><path d="M4661.5938,814.6719 C4660.6563,814.2344 4660.0625,814.0938 4659.1875,814.0938 C4656.5625,814.0938 4654.5625,816.1719 4654.5625,818.8906 L4654.5625,820.0156 C4654.5625,822.5938 4656.6719,824.4844 4659.5625,824.4844 C4660.7813,824.4844 4661.9375,824.1875 4662.6875,823.6406 C4663.2656,823.2344 4663.5938,822.7813 4663.5938,822.3906 C4663.5938,821.9375 4663.2031,821.5469 4662.7344,821.5469 C4662.5156,821.5469 4662.3125,821.625 4662.125,821.8125 C4661.6719,822.2969 4661.6719,822.2969 4661.4844,822.3906 C4661.0625,822.6563 4660.375,822.7813 4659.6094,822.7813 C4657.5625,822.7813 4656.2656,821.6875 4656.2656,819.9844 L4656.2656,818.8906 C4656.2656,817.1094 4657.5156,815.7969 4659.25,815.7969 C4659.8281,815.7969 4660.4375,815.9531 4660.9063,816.2031 C4661.3906,816.4844 4661.5625,816.7031 4661.6563,817.1094 C4661.7188,817.5156 4661.75,817.6406 4661.8906,817.7656 C4662.0313,817.9063 4662.2656,818.0156 4662.4844,818.0156 C4662.75,818.0156 4663.0156,817.875 4663.1875,817.6563 C4663.2969,817.5 4663.3281,817.3125 4663.3281,816.8906 L4663.3281,815.4688 C4663.3281,815.0313 4663.3125,814.9063 4663.2188,814.75 C4663.0625,814.4844 4662.7813,814.3438 4662.4844,814.3438 C4662.1875,814.3438 4661.9844,814.4375 4661.7656,814.75 L4661.5938,814.6719 Z " fill="#000000"/><text fill="#000000" font-family="sans-serif" font-size="14" lengthAdjust="spacing" textLength="109" x="4679.75" y="823.8467">EntryFieldType</text><line style="stroke:#181818;stroke-width:0.5;" x1="4603.5" x2="4832.5" y1="835" y2="835"/><ellipse cx="4613.5" cy="848.6484" fill="none" rx="3" ry="3" style="stroke:#038048;stroke-width:1.0;"/><text fill="#000000" font-family="sans-serif" font-size="14" lengthAdjust="spacing" textLength="63" x="4622.5" y="851.9951">int index</text><ellipse cx="4613.5" cy="864.9453" fill="none" rx="3" ry="3" style="stroke:#038048;stroke-width:1.0;"/><text fill="#000000" font-family="sans-serif" font-size="14" lengthAdjust="spacing" text-decoration="underline" textLength="205" x="4622.5" y="868.292">List&lt;EntryFieldType&gt; values</text><ellipse cx="4613.5" cy="881.2422" fill="none" rx="3" ry="3" style="stroke:#038048;stroke-width:1.0;"/><text fill="#000000" font-family="sans-serif" font-size="14" lengthAdjust="spacing" text-decoration="underline" textLength="167" x="4622.5" y="884.5889">EntryFieldType SELECT</text><ellipse cx="4613.5" cy="897.5391" fill="none" rx="3" ry="3" style="stroke:#038048;stroke-width:1.0;"/><text fill="#000000" font-family="sans-serif" font-size="14" lengthAdjust="spacing" text-decoration="underline" textLength="150" x="4622.5" y="900.8857">EntryFieldType TEXT</text><ellipse cx="4613.5" cy="913.8359" fill="none" rx="3" ry="3" style="stroke:#038048;stroke-width:1.0;"/><text fill="#000000" font-family="sans-serif" font-size="14" lengthAdjust="spacing" text-decoration="underline" textLength="199" x="4622.5" y="917.1826">EntryFieldType TIMEPICKER</text><line style="stroke:#181818;stroke-width:0.5;" x1="4603.5" x2="4832.5" y1="924.4844" y2="924.4844"/></g><!--class ShowCalculatedIntake--><g id="elem_ShowCalculatedIntake"><rect codeLine="24" fill="#F1F1F1" height="80.5938" id="ShowCalculatedIntake" rx="2.5" ry="2.5" style="stroke:#181818;stroke-width:0.5;" width="348" x="4150" y="556.5"/><ellipse cx="4240.25" cy="572.5" fill="#ADD1B2" rx="11" ry="11" style="stroke:#181818;stroke-width:1.0;"/><path d="M4242.5938,568.1719 C4241.6563,567.7344 4241.0625,567.5938 4240.1875,567.5938 C4237.5625,567.5938 4235.5625,569.6719 4235.5625,572.3906 L4235.5625,573.5156 C4235.5625,576.0938 4237.6719,577.9844 4240.5625,577.9844 C4241.7813,577.9844 4242.9375,577.6875 4243.6875,577.1406 C4244.2656,576.7344 4244.5938,576.2813 4244.5938,575.8906 C4244.5938,575.4375 4244.2031,575.0469 4243.7344,575.0469 C4243.5156,575.0469 4243.3125,575.125 4243.125,575.3125 C4242.6719,575.7969 4242.6719,575.7969 4242.4844,575.8906 C4242.0625,576.1563 4241.375,576.2813 4240.6094,576.2813 C4238.5625,576.2813 4237.2656,575.1875 4237.2656,573.4844 L4237.2656,572.3906 C4237.2656,570.6094 4238.5156,569.2969 4240.25,569.2969 C4240.8281,569.2969 4241.4375,569.4531 4241.9063,569.7031 C4242.3906,569.9844 4242.5625,570.2031 4242.6563,570.6094 C4242.7188,571.0156 4242.75,571.1406 4242.8906,571.2656 C4243.0313,571.4063 4243.2656,571.5156 4243.4844,571.5156 C4243.75,571.5156 4244.0156,571.375 4244.1875,571.1563 C4244.2969,571 4244.3281,570.8125 4244.3281,570.3906 L4244.3281,568.9688 C4244.3281,568.5313 4244.3125,568.4063 4244.2188,568.25 C4244.0625,567.9844 4243.7813,567.8438 4243.4844,567.8438 C4243.1875,567.8438 4242.9844,567.9375 4242.7656,568.25 L4242.5938,568.1719 Z " fill="#000000"/><text fill="#000000" font-family="sans-serif" font-size="14" lengthAdjust="spacing" textLength="159" x="4260.75" y="577.3467">ShowCalculatedIntake</text><line style="stroke:#181818;stroke-width:0.5;" x1="4151" x2="4497" y1="588.5" y2="588.5"/><ellipse cx="4161" cy="602.1484" fill="none" rx="3" ry="3" style="stroke:#038048;stroke-width:1.0;"/><text fill="#000000" font-family="sans-serif" font-size="14" lengthAdjust="spacing" textLength="142" x="4170" y="605.4951">String? waterIntake</text><line style="stroke:#181818;stroke-width:0.5;" x1="4151" x2="4497" y1="612.7969" y2="612.7969"/><ellipse cx="4161" cy="626.4453" fill="#84BE84" rx="3" ry="3" style="stroke:#038048;stroke-width:1.0;"/><text fill="#000000" font-family="sans-serif" font-size="14" lengthAdjust="spacing" textLength="322" x="4170" y="629.792">State&lt;ShowCalculatedIntake&gt; createState()</text></g><!--class _ShowCalculatedIntakeState--><g id="elem__ShowCalculatedIntakeState"><rect codeLine="31" fill="#F1F1F1" height="64.2969" id="_ShowCalculatedIntakeState" rx="2.5" ry="2.5" style="stroke:#181818;stroke-width:0.5;" width="238" x="3877" y="565"/><ellipse cx="3892" cy="581" fill="#ADD1B2" rx="11" ry="11" style="stroke:#181818;stroke-width:1.0;"/><path d="M3894.3438,576.6719 C3893.4063,576.2344 3892.8125,576.0938 3891.9375,576.0938 C3889.3125,576.0938 3887.3125,578.1719 3887.3125,580.8906 L3887.3125,582.0156 C3887.3125,584.5938 3889.4219,586.4844 3892.3125,586.4844 C3893.5313,586.4844 3894.6875,586.1875 3895.4375,585.6406 C3896.0156,585.2344 3896.3438,584.7813 3896.3438,584.3906 C3896.3438,583.9375 3895.9531,583.5469 3895.4844,583.5469 C3895.2656,583.5469 3895.0625,583.625 3894.875,583.8125 C3894.4219,584.2969 3894.4219,584.2969 3894.2344,584.3906 C3893.8125,584.6563 3893.125,584.7813 3892.3594,584.7813 C3890.3125,584.7813 3889.0156,583.6875 3889.0156,581.9844 L3889.0156,580.8906 C3889.0156,579.1094 3890.2656,577.7969 3892,577.7969 C3892.5781,577.7969 3893.1875,577.9531 3893.6563,578.2031 C3894.1406,578.4844 3894.3125,578.7031 3894.4063,579.1094 C3894.4688,579.5156 3894.5,579.6406 3894.6406,579.7656 C3894.7813,579.9063 3895.0156,580.0156 3895.2344,580.0156 C3895.5,580.0156 3895.7656,579.875 3895.9375,579.6563 C3896.0469,579.5 3896.0781,579.3125 3896.0781,578.8906 L3896.0781,577.4688 C3896.0781,577.0313 3896.0625,576.9063 3895.9688,576.75 C3895.8125,576.4844 3895.5313,576.3438 3895.2344,576.3438 C3894.9375,576.3438 3894.7344,576.4375 3894.5156,576.75 L3894.3438,576.6719 Z " fill="#000000"/><text fill="#000000" font-family="sans-serif" font-size="14" lengthAdjust="spacing" textLength="206" x="3906" y="585.8467">_ShowCalculatedIntakeState</text><line style="stroke:#181818;stroke-width:0.5;" x1="3878" x2="4114" y1="597" y2="597"/><line style="stroke:#181818;stroke-width:0.5;" x1="3878" x2="4114" y1="605" y2="605"/><ellipse cx="3888" cy="618.6484" fill="#84BE84" rx="3" ry="3" style="stroke:#038048;stroke-width:1.0;"/><text fill="#000000" font-family="sans-serif" font-size="14" lengthAdjust="spacing" textLength="101" x="3897" y="621.9951">Widget build()</text></g><!--class Waterlog--><g id="elem_Waterlog"><rect codeLine="37" fill="#F1F1F1" height="64.2969" id="Waterlog" rx="2.5" ry="2.5" style="stroke:#181818;stroke-width:0.5;" width="127" x="3693.5" y="565"/><ellipse cx="3721.55" cy="581" fill="#ADD1B2" rx="11" ry="11" style="stroke:#181818;stroke-width:1.0;"/><path d="M3723.8938,576.6719 C3722.9563,576.2344 3722.3625,576.0938 3721.4875,576.0938 C3718.8625,576.0938 3716.8625,578.1719 3716.8625,580.8906 L3716.8625,582.0156 C3716.8625,584.5938 3718.9719,586.4844 3721.8625,586.4844 C3723.0813,586.4844 3724.2375,586.1875 3724.9875,585.6406 C3725.5656,585.2344 3725.8938,584.7813 3725.8938,584.3906 C3725.8938,583.9375 3725.5031,583.5469 3725.0344,583.5469 C3724.8156,583.5469 3724.6125,583.625 3724.425,583.8125 C3723.9719,584.2969 3723.9719,584.2969 3723.7844,584.3906 C3723.3625,584.6563 3722.675,584.7813 3721.9094,584.7813 C3719.8625,584.7813 3718.5656,583.6875 3718.5656,581.9844 L3718.5656,580.8906 C3718.5656,579.1094 3719.8156,577.7969 3721.55,577.7969 C3722.1281,577.7969 3722.7375,577.9531 3723.2063,578.2031 C3723.6906,578.4844 3723.8625,578.7031 3723.9563,579.1094 C3724.0188,579.5156 3724.05,579.6406 3724.1906,579.7656 C3724.3313,579.9063 3724.5656,580.0156 3724.7844,580.0156 C3725.05,580.0156 3725.3156,579.875 3725.4875,579.6563 C3725.5969,579.5 3725.6281,579.3125 3725.6281,578.8906 L3725.6281,577.4688 C3725.6281,577.0313 3725.6125,576.9063 3725.5188,576.75 C3725.3625,576.4844 3725.0813,576.3438 3724.7844,576.3438 C3724.4875,576.3438 3724.2844,576.4375 3724.0656,576.75 L3723.8938,576.6719 Z " fill="#000000"/><text fill="#000000" font-family="sans-serif" font-size="14" lengthAdjust="spacing" textLength="66" x="3738.45" y="585.8467">Waterlog</text><line style="stroke:#181818;stroke-width:0.5;" x1="3694.5" x2="3819.5" y1="597" y2="597"/><line style="stroke:#181818;stroke-width:0.5;" x1="3694.5" x2="3819.5" y1="605" y2="605"/><ellipse cx="3704.5" cy="618.6484" fill="#84BE84" rx="3" ry="3" style="stroke:#038048;stroke-width:1.0;"/><text fill="#000000" font-family="sans-serif" font-size="14" lengthAdjust="spacing" textLength="101" x="3713.5" y="621.9951">Widget build()</text></g><!--class NextButton--><g id="elem_NextButton"><rect codeLine="43" fill="#F1F1F1" height="64.2969" id="NextButton" rx="2.5" ry="2.5" style="stroke:#181818;stroke-width:0.5;" width="127" x="3531.5" y="565"/><ellipse cx="3551.45" cy="581" fill="#ADD1B2" rx="11" ry="11" style="stroke:#181818;stroke-width:1.0;"/><path d="M3553.7938,576.6719 C3552.8563,576.2344 3552.2625,576.0938 3551.3875,576.0938 C3548.7625,576.0938 3546.7625,578.1719 3546.7625,580.8906 L3546.7625,582.0156 C3546.7625,584.5938 3548.8719,586.4844 3551.7625,586.4844 C3552.9813,586.4844 3554.1375,586.1875 3554.8875,585.6406 C3555.4656,585.2344 3555.7938,584.7813 3555.7938,584.3906 C3555.7938,583.9375 3555.4031,583.5469 3554.9344,583.5469 C3554.7156,583.5469 3554.5125,583.625 3554.325,583.8125 C3553.8719,584.2969 3553.8719,584.2969 3553.6844,584.3906 C3553.2625,584.6563 3552.575,584.7813 3551.8094,584.7813 C3549.7625,584.7813 3548.4656,583.6875 3548.4656,581.9844 L3548.4656,580.8906 C3548.4656,579.1094 3549.7156,577.7969 3551.45,577.7969 C3552.0281,577.7969 3552.6375,577.9531 3553.1063,578.2031 C3553.5906,578.4844 3553.7625,578.7031 3553.8563,579.1094 C3553.9188,579.5156 3553.95,579.6406 3554.0906,579.7656 C3554.2313,579.9063 3554.4656,580.0156 3554.6844,580.0156 C3554.95,580.0156 3555.2156,579.875 3555.3875,579.6563 C3555.4969,579.5 3555.5281,579.3125 3555.5281,578.8906 L3555.5281,577.4688 C3555.5281,577.0313 3555.5125,576.9063 3555.4188,576.75 C3555.2625,576.4844 3554.9813,576.3438 3554.6844,576.3438 C3554.3875,576.3438 3554.1844,576.4375 3553.9656,576.75 L3553.7938,576.6719 Z " fill="#000000"/><text fill="#000000" font-family="sans-serif" font-size="14" lengthAdjust="spacing" textLength="84" x="3566.55" y="585.8467">NextButton</text><line style="stroke:#181818;stroke-width:0.5;" x1="3532.5" x2="3657.5" y1="597" y2="597"/><line style="stroke:#181818;stroke-width:0.5;" x1="3532.5" x2="3657.5" y1="605" y2="605"/><ellipse cx="3542.5" cy="618.6484" fill="#84BE84" rx="3" ry="3" style="stroke:#038048;stroke-width:1.0;"/><text fill="#000000" font-family="sans-serif" font-size="14" lengthAdjust="spacing" textLength="101" x="3551.5" y="621.9951">Widget build()</text></g><!--class WaterIntakeTracker--><g id="elem_WaterIntakeTracker"><rect codeLine="49" fill="#F1F1F1" height="64.2969" id="WaterIntakeTracker" rx="2.5" ry="2.5" style="stroke:#181818;stroke-width:0.5;" width="334" x="3141" y="565"/><ellipse cx="3231.25" cy="581" fill="#ADD1B2" rx="11" ry="11" style="stroke:#181818;stroke-width:1.0;"/><path d="M3233.5938,576.6719 C3232.6563,576.2344 3232.0625,576.0938 3231.1875,576.0938 C3228.5625,576.0938 3226.5625,578.1719 3226.5625,580.8906 L3226.5625,582.0156 C3226.5625,584.5938 3228.6719,586.4844 3231.5625,586.4844 C3232.7813,586.4844 3233.9375,586.1875 3234.6875,585.6406 C3235.2656,585.2344 3235.5938,584.7813 3235.5938,584.3906 C3235.5938,583.9375 3235.2031,583.5469 3234.7344,583.5469 C3234.5156,583.5469 3234.3125,583.625 3234.125,583.8125 C3233.6719,584.2969 3233.6719,584.2969 3233.4844,584.3906 C3233.0625,584.6563 3232.375,584.7813 3231.6094,584.7813 C3229.5625,584.7813 3228.2656,583.6875 3228.2656,581.9844 L3228.2656,580.8906 C3228.2656,579.1094 3229.5156,577.7969 3231.25,577.7969 C3231.8281,577.7969 3232.4375,577.9531 3232.9063,578.2031 C3233.3906,578.4844 3233.5625,578.7031 3233.6563,579.1094 C3233.7188,579.5156 3233.75,579.6406 3233.8906,579.7656 C3234.0313,579.9063 3234.2656,580.0156 3234.4844,580.0156 C3234.75,580.0156 3235.0156,579.875 3235.1875,579.6563 C3235.2969,579.5 3235.3281,579.3125 3235.3281,578.8906 L3235.3281,577.4688 C3235.3281,577.0313 3235.3125,576.9063 3235.2188,576.75 C3235.0625,576.4844 3234.7813,576.3438 3234.4844,576.3438 C3234.1875,576.3438 3233.9844,576.4375 3233.7656,576.75 L3233.5938,576.6719 Z " fill="#000000"/><text fill="#000000" font-family="sans-serif" font-size="14" lengthAdjust="spacing" textLength="145" x="3251.75" y="585.8467">WaterIntakeTracker</text><line style="stroke:#181818;stroke-width:0.5;" x1="3142" x2="3474" y1="597" y2="597"/><line style="stroke:#181818;stroke-width:0.5;" x1="3142" x2="3474" y1="605" y2="605"/><ellipse cx="3152" cy="618.6484" fill="#84BE84" rx="3" ry="3" style="stroke:#038048;stroke-width:1.0;"/><text fill="#000000" font-family="sans-serif" font-size="14" lengthAdjust="spacing" textLength="308" x="3161" y="621.9951">State&lt;WaterIntakeTracker&gt; createState()</text></g><!--class _WaterIntakeTrackerState--><g id="elem__WaterIntakeTrackerState"><rect codeLine="55" fill="#F1F1F1" height="80.5938" id="_WaterIntakeTrackerState" rx="2.5" ry="2.5" style="stroke:#181818;stroke-width:0.5;" width="224" x="2882" y="556.5"/><ellipse cx="2897" cy="572.5" fill="#ADD1B2" rx="11" ry="11" style="stroke:#181818;stroke-width:1.0;"/><path d="M2899.3438,568.1719 C2898.4063,567.7344 2897.8125,567.5938 2896.9375,567.5938 C2894.3125,567.5938 2892.3125,569.6719 2892.3125,572.3906 L2892.3125,573.5156 C2892.3125,576.0938 2894.4219,577.9844 2897.3125,577.9844 C2898.5313,577.9844 2899.6875,577.6875 2900.4375,577.1406 C2901.0156,576.7344 2901.3438,576.2813 2901.3438,575.8906 C2901.3438,575.4375 2900.9531,575.0469 2900.4844,575.0469 C2900.2656,575.0469 2900.0625,575.125 2899.875,575.3125 C2899.4219,575.7969 2899.4219,575.7969 2899.2344,575.8906 C2898.8125,576.1563 2898.125,576.2813 2897.3594,576.2813 C2895.3125,576.2813 2894.0156,575.1875 2894.0156,573.4844 L2894.0156,572.3906 C2894.0156,570.6094 2895.2656,569.2969 2897,569.2969 C2897.5781,569.2969 2898.1875,569.4531 2898.6563,569.7031 C2899.1406,569.9844 2899.3125,570.2031 2899.4063,570.6094 C2899.4688,571.0156 2899.5,571.1406 2899.6406,571.2656 C2899.7813,571.4063 2900.0156,571.5156 2900.2344,571.5156 C2900.5,571.5156 2900.7656,571.375 2900.9375,571.1563 C2901.0469,571 2901.0781,570.8125 2901.0781,570.3906 L2901.0781,568.9688 C2901.0781,568.5313 2901.0625,568.4063 2900.9688,568.25 C2900.8125,567.9844 2900.5313,567.8438 2900.2344,567.8438 C2899.9375,567.8438 2899.7344,567.9375 2899.5156,568.25 L2899.3438,568.1719 Z " fill="#000000"/><text fill="#000000" font-family="sans-serif" font-size="14" lengthAdjust="spacing" textLength="192" x="2911" y="577.3467">_WaterIntakeTrackerState</text><line style="stroke:#181818;stroke-width:0.5;" x1="2883" x2="3105" y1="588.5" y2="588.5"/><ellipse cx="2893" cy="602.1484" fill="none" rx="3" ry="3" style="stroke:#038048;stroke-width:1.0;"/><text fill="#000000" font-family="sans-serif" font-size="14" lengthAdjust="spacing" textLength="140" x="2902" y="605.4951">double waterIntake</text><line style="stroke:#181818;stroke-width:0.5;" x1="2883" x2="3105" y1="612.7969" y2="612.7969"/><ellipse cx="2893" cy="626.4453" fill="#84BE84" rx="3" ry="3" style="stroke:#038048;stroke-width:1.0;"/><text fill="#000000" font-family="sans-serif" font-size="14" lengthAdjust="spacing" textLength="101" x="2902" y="629.792">Widget build()</text></g><!--class PersonalDetailsEntry--><g id="elem_PersonalDetailsEntry"><rect codeLine="62" fill="#F1F1F1" height="64.2969" id="PersonalDetailsEntry" rx="2.5" ry="2.5" style="stroke:#181818;stroke-width:0.5;" width="339" x="1196.5" y="565"/><ellipse cx="1286.75" cy="581" fill="#ADD1B2" rx="11" ry="11" style="stroke:#181818;stroke-width:1.0;"/><path d="M1289.0938,576.6719 C1288.1563,576.2344 1287.5625,576.0938 1286.6875,576.0938 C1284.0625,576.0938 1282.0625,578.1719 1282.0625,580.8906 L1282.0625,582.0156 C1282.0625,584.5938 1284.1719,586.4844 1287.0625,586.4844 C1288.2813,586.4844 1289.4375,586.1875 1290.1875,585.6406 C1290.7656,585.2344 1291.0938,584.7813 1291.0938,584.3906 C1291.0938,583.9375 1290.7031,583.5469 1290.2344,583.5469 C1290.0156,583.5469 1289.8125,583.625 1289.625,583.8125 C1289.1719,584.2969 1289.1719,584.2969 1288.9844,584.3906 C1288.5625,584.6563 1287.875,584.7813 1287.1094,584.7813 C1285.0625,584.7813 1283.7656,583.6875 1283.7656,581.9844 L1283.7656,580.8906 C1283.7656,579.1094 1285.0156,577.7969 1286.75,577.7969 C1287.3281,577.7969 1287.9375,577.9531 1288.4063,578.2031 C1288.8906,578.4844 1289.0625,578.7031 1289.1563,579.1094 C1289.2188,579.5156 1289.25,579.6406 1289.3906,579.7656 C1289.5313,579.9063 1289.7656,580.0156 1289.9844,580.0156 C1290.25,580.0156 1290.5156,579.875 1290.6875,579.6563 C1290.7969,579.5 1290.8281,579.3125 1290.8281,578.8906 L1290.8281,577.4688 C1290.8281,577.0313 1290.8125,576.9063 1290.7188,576.75 C1290.5625,576.4844 1290.2813,576.3438 1289.9844,576.3438 C1289.6875,576.3438 1289.4844,576.4375 1289.2656,576.75 L1289.0938,576.6719 Z " fill="#000000"/><text fill="#000000" font-family="sans-serif" font-size="14" lengthAdjust="spacing" textLength="150" x="1307.25" y="585.8467">PersonalDetailsEntry</text><line style="stroke:#181818;stroke-width:0.5;" x1="1197.5" x2="1534.5" y1="597" y2="597"/><line style="stroke:#181818;stroke-width:0.5;" x1="1197.5" x2="1534.5" y1="605" y2="605"/><ellipse cx="1207.5" cy="618.6484" fill="#84BE84" rx="3" ry="3" style="stroke:#038048;stroke-width:1.0;"/><text fill="#000000" font-family="sans-serif" font-size="14" lengthAdjust="spacing" textLength="313" x="1216.5" y="621.9951">State&lt;PersonalDetailsEntry&gt; createState()</text></g><!--class _PersonalDetailsEntryState--><g id="elem__PersonalDetailsEntryState"><rect codeLine="68" fill="#F1F1F1" height="194.6719" id="_PersonalDetailsEntryState" rx="2.5" ry="2.5" style="stroke:#181818;stroke-width:0.5;" width="290" x="871" y="499.5"/><ellipse cx="913.45" cy="515.5" fill="#ADD1B2" rx="11" ry="11" style="stroke:#181818;stroke-width:1.0;"/><path d="M915.7938,511.1719 C914.8563,510.7344 914.2625,510.5938 913.3875,510.5938 C910.7625,510.5938 908.7625,512.6719 908.7625,515.3906 L908.7625,516.5156 C908.7625,519.0938 910.8719,520.9844 913.7625,520.9844 C914.9813,520.9844 916.1375,520.6875 916.8875,520.1406 C917.4656,519.7344 917.7938,519.2813 917.7938,518.8906 C917.7938,518.4375 917.4031,518.0469 916.9344,518.0469 C916.7156,518.0469 916.5125,518.125 916.325,518.3125 C915.8719,518.7969 915.8719,518.7969 915.6844,518.8906 C915.2625,519.1563 914.575,519.2813 913.8094,519.2813 C911.7625,519.2813 910.4656,518.1875 910.4656,516.4844 L910.4656,515.3906 C910.4656,513.6094 911.7156,512.2969 913.45,512.2969 C914.0281,512.2969 914.6375,512.4531 915.1063,512.7031 C915.5906,512.9844 915.7625,513.2031 915.8563,513.6094 C915.9188,514.0156 915.95,514.1406 916.0906,514.2656 C916.2313,514.4063 916.4656,514.5156 916.6844,514.5156 C916.95,514.5156 917.2156,514.375 917.3875,514.1563 C917.4969,514 917.5281,513.8125 917.5281,513.3906 L917.5281,511.9688 C917.5281,511.5313 917.5125,511.4063 917.4188,511.25 C917.2625,510.9844 916.9813,510.8438 916.6844,510.8438 C916.3875,510.8438 916.1844,510.9375 915.9656,511.25 L915.7938,511.1719 Z " fill="#000000"/><text fill="#000000" font-family="sans-serif" font-size="14" lengthAdjust="spacing" textLength="197" x="933.55" y="520.3467">_PersonalDetailsEntryState</text><line style="stroke:#181818;stroke-width:0.5;" x1="872" x2="1160" y1="531.5" y2="531.5"/><ellipse cx="882" cy="545.1484" fill="none" rx="3" ry="3" style="stroke:#038048;stroke-width:1.0;"/><text fill="#000000" font-family="sans-serif" font-size="14" lengthAdjust="spacing" textLength="264" x="891" y="548.4951">List&lt;PersonalDataCardModel&gt; items</text><ellipse cx="882" cy="561.4453" fill="none" rx="3" ry="3" style="stroke:#038048;stroke-width:1.0;"/><text fill="#000000" font-family="sans-serif" font-size="14" lengthAdjust="spacing" textLength="122" x="891" y="564.792">Genders? gender</text><ellipse cx="882" cy="577.7422" fill="none" rx="3" ry="3" style="stroke:#038048;stroke-width:1.0;"/><text fill="#000000" font-family="sans-serif" font-size="14" lengthAdjust="spacing" textLength="97" x="891" y="581.0889">String weight</text><ellipse cx="882" cy="594.0391" fill="none" rx="3" ry="3" style="stroke:#038048;stroke-width:1.0;"/><text fill="#000000" font-family="sans-serif" font-size="14" lengthAdjust="spacing" textLength="95" x="891" y="597.3857">String height</text><ellipse cx="882" cy="610.3359" fill="none" rx="3" ry="3" style="stroke:#038048;stroke-width:1.0;"/><text fill="#000000" font-family="sans-serif" font-size="14" lengthAdjust="spacing" textLength="82" x="891" y="613.6826">String time</text><line style="stroke:#181818;stroke-width:0.5;" x1="872" x2="1160" y1="620.9844" y2="620.9844"/><ellipse cx="882" cy="634.6328" fill="#84BE84" rx="3" ry="3" style="stroke:#038048;stroke-width:1.0;"/><text fill="#000000" font-family="sans-serif" font-size="14" lengthAdjust="spacing" textLength="178" x="891" y="637.9795">void onGenderChanged()</text><ellipse cx="882" cy="650.9297" fill="#84BE84" rx="3" ry="3" style="stroke:#038048;stroke-width:1.0;"/><text fill="#000000" font-family="sans-serif" font-size="14" lengthAdjust="spacing" textLength="177" x="891" y="654.2764">void onWeightChanged()</text><ellipse cx="882" cy="667.2266" fill="#84BE84" rx="3" ry="3" style="stroke:#038048;stroke-width:1.0;"/><text fill="#000000" font-family="sans-serif" font-size="14" lengthAdjust="spacing" textLength="173" x="891" y="670.5732">void onHeightChanged()</text><ellipse cx="882" cy="683.5234" fill="#84BE84" rx="3" ry="3" style="stroke:#038048;stroke-width:1.0;"/><text fill="#000000" font-family="sans-serif" font-size="14" lengthAdjust="spacing" textLength="101" x="891" y="686.8701">Widget build()</text></g><!--class RadioOption--><g id="elem_RadioOption"><rect codeLine="83" fill="#F1F1F1" height="113.1875" id="RadioOption" rx="2.5" ry="2.5" style="stroke:#181818;stroke-width:0.5;" width="367" x="1796.5" y="540.5"/><ellipse cx="1930.75" cy="556.5" fill="#ADD1B2" rx="11" ry="11" style="stroke:#181818;stroke-width:1.0;"/><path d="M1933.0938,552.1719 C1932.1563,551.7344 1931.5625,551.5938 1930.6875,551.5938 C1928.0625,551.5938 1926.0625,553.6719 1926.0625,556.3906 L1926.0625,557.5156 C1926.0625,560.0938 1928.1719,561.9844 1931.0625,561.9844 C1932.2813,561.9844 1933.4375,561.6875 1934.1875,561.1406 C1934.7656,560.7344 1935.0938,560.2813 1935.0938,559.8906 C1935.0938,559.4375 1934.7031,559.0469 1934.2344,559.0469 C1934.0156,559.0469 1933.8125,559.125 1933.625,559.3125 C1933.1719,559.7969 1933.1719,559.7969 1932.9844,559.8906 C1932.5625,560.1563 1931.875,560.2813 1931.1094,560.2813 C1929.0625,560.2813 1927.7656,559.1875 1927.7656,557.4844 L1927.7656,556.3906 C1927.7656,554.6094 1929.0156,553.2969 1930.75,553.2969 C1931.3281,553.2969 1931.9375,553.4531 1932.4063,553.7031 C1932.8906,553.9844 1933.0625,554.2031 1933.1563,554.6094 C1933.2188,555.0156 1933.25,555.1406 1933.3906,555.2656 C1933.5313,555.4063 1933.7656,555.5156 1933.9844,555.5156 C1934.25,555.5156 1934.5156,555.375 1934.6875,555.1563 C1934.7969,555 1934.8281,554.8125 1934.8281,554.3906 L1934.8281,552.9688 C1934.8281,552.5313 1934.8125,552.4063 1934.7188,552.25 C1934.5625,551.9844 1934.2813,551.8438 1933.9844,551.8438 C1933.6875,551.8438 1933.4844,551.9375 1933.2656,552.25 L1933.0938,552.1719 Z " fill="#000000"/><text fill="#000000" font-family="sans-serif" font-size="14" lengthAdjust="spacing" textLength="90" x="1951.25" y="561.3467">RadioOption</text><line style="stroke:#181818;stroke-width:0.5;" x1="1797.5" x2="2162.5" y1="572.5" y2="572.5"/><ellipse cx="1807.5" cy="586.1484" fill="none" rx="3" ry="3" style="stroke:#038048;stroke-width:1.0;"/><text fill="#000000" font-family="sans-serif" font-size="14" lengthAdjust="spacing" textLength="79" x="1816.5" y="589.4951">String title</text><ellipse cx="1807.5" cy="602.4453" fill="none" rx="3" ry="3" style="stroke:#038048;stroke-width:1.0;"/><text fill="#000000" font-family="sans-serif" font-size="14" lengthAdjust="spacing" textLength="122" x="1816.5" y="605.792">Genders? gender</text><line style="stroke:#181818;stroke-width:0.5;" x1="1797.5" x2="2162.5" y1="613.0938" y2="613.0938"/><ellipse cx="1807.5" cy="626.7422" fill="#84BE84" rx="3" ry="3" style="stroke:#038048;stroke-width:1.0;"/><text fill="#000000" font-family="sans-serif" font-size="14" lengthAdjust="spacing" textLength="341" x="1816.5" y="630.0889">dynamic Function(Genders?) onGenderChanged</text><ellipse cx="1807.5" cy="643.0391" fill="#84BE84" rx="3" ry="3" style="stroke:#038048;stroke-width:1.0;"/><text fill="#000000" font-family="sans-serif" font-size="14" lengthAdjust="spacing" textLength="253" x="1816.5" y="646.3857">State&lt;RadioOption&gt; createState()</text></g><!--class _RadioOptionState--><g id="elem__RadioOptionState"><rect codeLine="94" fill="#F1F1F1" height="96.8906" id="_RadioOptionState" rx="2.5" ry="2.5" style="stroke:#181818;stroke-width:0.5;" width="169" x="1592.5" y="548.5"/><ellipse cx="1607.5" cy="564.5" fill="#ADD1B2" rx="11" ry="11" style="stroke:#181818;stroke-width:1.0;"/><path d="M1609.8438,560.1719 C1608.9063,559.7344 1608.3125,559.5938 1607.4375,559.5938 C1604.8125,559.5938 1602.8125,561.6719 1602.8125,564.3906 L1602.8125,565.5156 C1602.8125,568.0938 1604.9219,569.9844 1607.8125,569.9844 C1609.0313,569.9844 1610.1875,569.6875 1610.9375,569.1406 C1611.5156,568.7344 1611.8438,568.2813 1611.8438,567.8906 C1611.8438,567.4375 1611.4531,567.0469 1610.9844,567.0469 C1610.7656,567.0469 1610.5625,567.125 1610.375,567.3125 C1609.9219,567.7969 1609.9219,567.7969 1609.7344,567.8906 C1609.3125,568.1563 1608.625,568.2813 1607.8594,568.2813 C1605.8125,568.2813 1604.5156,567.1875 1604.5156,565.4844 L1604.5156,564.3906 C1604.5156,562.6094 1605.7656,561.2969 1607.5,561.2969 C1608.0781,561.2969 1608.6875,561.4531 1609.1563,561.7031 C1609.6406,561.9844 1609.8125,562.2031 1609.9063,562.6094 C1609.9688,563.0156 1610,563.1406 1610.1406,563.2656 C1610.2813,563.4063 1610.5156,563.5156 1610.7344,563.5156 C1611,563.5156 1611.2656,563.375 1611.4375,563.1563 C1611.5469,563 1611.5781,562.8125 1611.5781,562.3906 L1611.5781,560.9688 C1611.5781,560.5313 1611.5625,560.4063 1611.4688,560.25 C1611.3125,559.9844 1611.0313,559.8438 1610.7344,559.8438 C1610.4375,559.8438 1610.2344,559.9375 1610.0156,560.25 L1609.8438,560.1719 Z " fill="#000000"/><text fill="#000000" font-family="sans-serif" font-size="14" lengthAdjust="spacing" textLength="137" x="1621.5" y="569.3467">_RadioOptionState</text><line style="stroke:#181818;stroke-width:0.5;" x1="1593.5" x2="1760.5" y1="580.5" y2="580.5"/><ellipse cx="1603.5" cy="594.1484" fill="none" rx="3" ry="3" style="stroke:#038048;stroke-width:1.0;"/><text fill="#000000" font-family="sans-serif" font-size="14" lengthAdjust="spacing" textLength="122" x="1612.5" y="597.4951">Genders? gender</text><line style="stroke:#181818;stroke-width:0.5;" x1="1593.5" x2="1760.5" y1="604.7969" y2="604.7969"/><ellipse cx="1603.5" cy="618.4453" fill="#84BE84" rx="3" ry="3" style="stroke:#038048;stroke-width:1.0;"/><text fill="#000000" font-family="sans-serif" font-size="14" lengthAdjust="spacing" textLength="108" x="1612.5" y="621.792">void initState()</text><ellipse cx="1603.5" cy="634.7422" fill="#84BE84" rx="3" ry="3" style="stroke:#038048;stroke-width:1.0;"/><text fill="#000000" font-family="sans-serif" font-size="14" lengthAdjust="spacing" textLength="101" x="1612.5" y="638.0889">Widget build()</text></g><!--class TextOption--><g id="elem_TextOption"><rect codeLine="103" fill="#F1F1F1" height="129.4844" id="TextOption" rx="2.5" ry="2.5" style="stroke:#181818;stroke-width:0.5;" width="281" x="2520.5" y="532.5"/><ellipse cx="2615.25" cy="548.5" fill="#ADD1B2" rx="11" ry="11" style="stroke:#181818;stroke-width:1.0;"/><path d="M2617.5938,544.1719 C2616.6563,543.7344 2616.0625,543.5938 2615.1875,543.5938 C2612.5625,543.5938 2610.5625,545.6719 2610.5625,548.3906 L2610.5625,549.5156 C2610.5625,552.0938 2612.6719,553.9844 2615.5625,553.9844 C2616.7813,553.9844 2617.9375,553.6875 2618.6875,553.1406 C2619.2656,552.7344 2619.5938,552.2813 2619.5938,551.8906 C2619.5938,551.4375 2619.2031,551.0469 2618.7344,551.0469 C2618.5156,551.0469 2618.3125,551.125 2618.125,551.3125 C2617.6719,551.7969 2617.6719,551.7969 2617.4844,551.8906 C2617.0625,552.1563 2616.375,552.2813 2615.6094,552.2813 C2613.5625,552.2813 2612.2656,551.1875 2612.2656,549.4844 L2612.2656,548.3906 C2612.2656,546.6094 2613.5156,545.2969 2615.25,545.2969 C2615.8281,545.2969 2616.4375,545.4531 2616.9063,545.7031 C2617.3906,545.9844 2617.5625,546.2031 2617.6563,546.6094 C2617.7188,547.0156 2617.75,547.1406 2617.8906,547.2656 C2618.0313,547.4063 2618.2656,547.5156 2618.4844,547.5156 C2618.75,547.5156 2619.0156,547.375 2619.1875,547.1563 C2619.2969,547 2619.3281,546.8125 2619.3281,546.3906 L2619.3281,544.9688 C2619.3281,544.5313 2619.3125,544.4063 2619.2188,544.25 C2619.0625,543.9844 2618.7813,543.8438 2618.4844,543.8438 C2618.1875,543.8438 2617.9844,543.9375 2617.7656,544.25 L2617.5938,544.1719 Z " fill="#000000"/><text fill="#000000" font-family="sans-serif" font-size="14" lengthAdjust="spacing" textLength="83" x="2635.75" y="553.3467">TextOption</text><line style="stroke:#181818;stroke-width:0.5;" x1="2521.5" x2="2800.5" y1="564.5" y2="564.5"/><ellipse cx="2531.5" cy="578.1484" fill="none" rx="3" ry="3" style="stroke:#038048;stroke-width:1.0;"/><text fill="#000000" font-family="sans-serif" font-size="14" lengthAdjust="spacing" textLength="79" x="2540.5" y="581.4951">String title</text><ellipse cx="2531.5" cy="594.4453" fill="none" rx="3" ry="3" style="stroke:#038048;stroke-width:1.0;"/><text fill="#000000" font-family="sans-serif" font-size="14" lengthAdjust="spacing" textLength="103" x="2540.5" y="597.792">String prevVal</text><ellipse cx="2531.5" cy="610.7422" fill="none" rx="3" ry="3" style="stroke:#038048;stroke-width:1.0;"/><text fill="#000000" font-family="sans-serif" font-size="14" lengthAdjust="spacing" textLength="76" x="2540.5" y="614.0889">String unit</text><line style="stroke:#181818;stroke-width:0.5;" x1="2521.5" x2="2800.5" y1="621.3906" y2="621.3906"/><ellipse cx="2531.5" cy="635.0391" fill="#84BE84" rx="3" ry="3" style="stroke:#038048;stroke-width:1.0;"/><text fill="#000000" font-family="sans-serif" font-size="14" lengthAdjust="spacing" textLength="255" x="2540.5" y="638.3857">dynamic Function(String) operation</text><ellipse cx="2531.5" cy="651.3359" fill="#84BE84" rx="3" ry="3" style="stroke:#038048;stroke-width:1.0;"/><text fill="#000000" font-family="sans-serif" font-size="14" lengthAdjust="spacing" textLength="246" x="2540.5" y="654.6826">State&lt;TextOption&gt; createState()</text></g><!--class _TextOptionState--><g id="elem__TextOptionState"><rect codeLine="114" fill="#F1F1F1" height="80.5938" id="_TextOptionState" rx="2.5" ry="2.5" style="stroke:#181818;stroke-width:0.5;" width="265" x="2220.5" y="556.5"/><ellipse cx="2283.75" cy="572.5" fill="#ADD1B2" rx="11" ry="11" style="stroke:#181818;stroke-width:1.0;"/><path d="M2286.0938,568.1719 C2285.1563,567.7344 2284.5625,567.5938 2283.6875,567.5938 C2281.0625,567.5938 2279.0625,569.6719 2279.0625,572.3906 L2279.0625,573.5156 C2279.0625,576.0938 2281.1719,577.9844 2284.0625,577.9844 C2285.2813,577.9844 2286.4375,577.6875 2287.1875,577.1406 C2287.7656,576.7344 2288.0938,576.2813 2288.0938,575.8906 C2288.0938,575.4375 2287.7031,575.0469 2287.2344,575.0469 C2287.0156,575.0469 2286.8125,575.125 2286.625,575.3125 C2286.1719,575.7969 2286.1719,575.7969 2285.9844,575.8906 C2285.5625,576.1563 2284.875,576.2813 2284.1094,576.2813 C2282.0625,576.2813 2280.7656,575.1875 2280.7656,573.4844 L2280.7656,572.3906 C2280.7656,570.6094 2282.0156,569.2969 2283.75,569.2969 C2284.3281,569.2969 2284.9375,569.4531 2285.4063,569.7031 C2285.8906,569.9844 2286.0625,570.2031 2286.1563,570.6094 C2286.2188,571.0156 2286.25,571.1406 2286.3906,571.2656 C2286.5313,571.4063 2286.7656,571.5156 2286.9844,571.5156 C2287.25,571.5156 2287.5156,571.375 2287.6875,571.1563 C2287.7969,571 2287.8281,570.8125 2287.8281,570.3906 L2287.8281,568.9688 C2287.8281,568.5313 2287.8125,568.4063 2287.7188,568.25 C2287.5625,567.9844 2287.2813,567.8438 2286.9844,567.8438 C2286.6875,567.8438 2286.4844,567.9375 2286.2656,568.25 L2286.0938,568.1719 Z " fill="#000000"/><text fill="#000000" font-family="sans-serif" font-size="14" lengthAdjust="spacing" textLength="130" x="2304.25" y="577.3467">_TextOptionState</text><line style="stroke:#181818;stroke-width:0.5;" x1="2221.5" x2="2484.5" y1="588.5" y2="588.5"/><rect fill="none" height="6" style="stroke:#C82930;stroke-width:1.0;" width="6" x="2228.5" y="599.1484"/><text fill="#000000" font-family="sans-serif" font-size="14" lengthAdjust="spacing" textLength="239" x="2240.5" y="605.4951">TextEditingController _controller</text><line style="stroke:#181818;stroke-width:0.5;" x1="2221.5" x2="2484.5" y1="612.7969" y2="612.7969"/><ellipse cx="2231.5" cy="626.4453" fill="#84BE84" rx="3" ry="3" style="stroke:#038048;stroke-width:1.0;"/><text fill="#000000" font-family="sans-serif" font-size="14" lengthAdjust="spacing" textLength="101" x="2240.5" y="629.792">Widget build()</text></g><!--class Genders--><g id="elem_Genders"><rect codeLine="147" fill="#F1F1F1" height="113.1875" id="Genders" rx="2.5" ry="2.5" style="stroke:#181818;stroke-width:0.5;" width="182" x="543" y="811"/><ellipse cx="599.75" cy="827" fill="#ADD1B2" rx="11" ry="11" style="stroke:#181818;stroke-width:1.0;"/><path d="M602.0938,822.6719 C601.1563,822.2344 600.5625,822.0938 599.6875,822.0938 C597.0625,822.0938 595.0625,824.1719 595.0625,826.8906 L595.0625,828.0156 C595.0625,830.5938 597.1719,832.4844 600.0625,832.4844 C601.2813,832.4844 602.4375,832.1875 603.1875,831.6406 C603.7656,831.2344 604.0938,830.7813 604.0938,830.3906 C604.0938,829.9375 603.7031,829.5469 603.2344,829.5469 C603.0156,829.5469 602.8125,829.625 602.625,829.8125 C602.1719,830.2969 602.1719,830.2969 601.9844,830.3906 C601.5625,830.6563 600.875,830.7813 600.1094,830.7813 C598.0625,830.7813 596.7656,829.6875 596.7656,827.9844 L596.7656,826.8906 C596.7656,825.1094 598.0156,823.7969 599.75,823.7969 C600.3281,823.7969 600.9375,823.9531 601.4063,824.2031 C601.8906,824.4844 602.0625,824.7031 602.1563,825.1094 C602.2188,825.5156 602.25,825.6406 602.3906,825.7656 C602.5313,825.9063 602.7656,826.0156 602.9844,826.0156 C603.25,826.0156 603.5156,825.875 603.6875,825.6563 C603.7969,825.5 603.8281,825.3125 603.8281,824.8906 L603.8281,823.4688 C603.8281,823.0313 603.8125,822.9063 603.7188,822.75 C603.5625,822.4844 603.2813,822.3438 602.9844,822.3438 C602.6875,822.3438 602.4844,822.4375 602.2656,822.75 L602.0938,822.6719 Z " fill="#000000"/><text fill="#000000" font-family="sans-serif" font-size="14" lengthAdjust="spacing" textLength="60" x="620.25" y="831.8467">Genders</text><line style="stroke:#181818;stroke-width:0.5;" x1="544" x2="724" y1="843" y2="843"/><ellipse cx="554" cy="856.6484" fill="none" rx="3" ry="3" style="stroke:#038048;stroke-width:1.0;"/><text fill="#000000" font-family="sans-serif" font-size="14" lengthAdjust="spacing" textLength="63" x="563" y="859.9951">int index</text><ellipse cx="554" cy="872.9453" fill="none" rx="3" ry="3" style="stroke:#038048;stroke-width:1.0;"/><text fill="#000000" font-family="sans-serif" font-size="14" lengthAdjust="spacing" text-decoration="underline" textLength="156" x="563" y="876.292">List&lt;Genders&gt; values</text><ellipse cx="554" cy="889.2422" fill="none" rx="3" ry="3" style="stroke:#038048;stroke-width:1.0;"/><text fill="#000000" font-family="sans-serif" font-size="14" lengthAdjust="spacing" text-decoration="underline" textLength="103" x="563" y="892.5889">Genders MALE</text><ellipse cx="554" cy="905.5391" fill="none" rx="3" ry="3" style="stroke:#038048;stroke-width:1.0;"/><text fill="#000000" font-family="sans-serif" font-size="14" lengthAdjust="spacing" text-decoration="underline" textLength="120" x="563" y="908.8857">Genders FEMALE</text><line style="stroke:#181818;stroke-width:0.5;" x1="544" x2="724" y1="916.1875" y2="916.1875"/></g><!--class UserProvider--><g id="elem_UserProvider"><rect codeLine="126" fill="#F1F1F1" height="292.4531" id="UserProvider" rx="2.5" ry="2.5" style="stroke:#181818;stroke-width:0.5;" width="275" x="467.5" y="451"/><ellipse cx="555.25" cy="467" fill="#ADD1B2" rx="11" ry="11" style="stroke:#181818;stroke-width:1.0;"/><path d="M557.5938,462.6719 C556.6563,462.2344 556.0625,462.0938 555.1875,462.0938 C552.5625,462.0938 550.5625,464.1719 550.5625,466.8906 L550.5625,468.0156 C550.5625,470.5938 552.6719,472.4844 555.5625,472.4844 C556.7813,472.4844 557.9375,472.1875 558.6875,471.6406 C559.2656,471.2344 559.5938,470.7813 559.5938,470.3906 C559.5938,469.9375 559.2031,469.5469 558.7344,469.5469 C558.5156,469.5469 558.3125,469.625 558.125,469.8125 C557.6719,470.2969 557.6719,470.2969 557.4844,470.3906 C557.0625,470.6563 556.375,470.7813 555.6094,470.7813 C553.5625,470.7813 552.2656,469.6875 552.2656,467.9844 L552.2656,466.8906 C552.2656,465.1094 553.5156,463.7969 555.25,463.7969 C555.8281,463.7969 556.4375,463.9531 556.9063,464.2031 C557.3906,464.4844 557.5625,464.7031 557.6563,465.1094 C557.7188,465.5156 557.75,465.6406 557.8906,465.7656 C558.0313,465.9063 558.2656,466.0156 558.4844,466.0156 C558.75,466.0156 559.0156,465.875 559.1875,465.6563 C559.2969,465.5 559.3281,465.3125 559.3281,464.8906 L559.3281,463.4688 C559.3281,463.0313 559.3125,462.9063 559.2188,462.75 C559.0625,462.4844 558.7813,462.3438 558.4844,462.3438 C558.1875,462.3438 557.9844,462.4375 557.7656,462.75 L557.5938,462.6719 Z " fill="#000000"/><text fill="#000000" font-family="sans-serif" font-size="14" lengthAdjust="spacing" textLength="91" x="575.75" y="471.8467">UserProvider</text><line style="stroke:#181818;stroke-width:0.5;" x1="468.5" x2="741.5" y1="483" y2="483"/><ellipse cx="478.5" cy="496.6484" fill="none" rx="3" ry="3" style="stroke:#038048;stroke-width:1.0;"/><text fill="#000000" font-family="sans-serif" font-size="14" lengthAdjust="spacing" textLength="122" x="487.5" y="499.9951">Genders? gender</text><ellipse cx="478.5" cy="512.9453" fill="none" rx="3" ry="3" style="stroke:#038048;stroke-width:1.0;"/><text fill="#000000" font-family="sans-serif" font-size="14" lengthAdjust="spacing" textLength="97" x="487.5" y="516.292">String weight</text><ellipse cx="478.5" cy="529.2422" fill="none" rx="3" ry="3" style="stroke:#038048;stroke-width:1.0;"/><text fill="#000000" font-family="sans-serif" font-size="14" lengthAdjust="spacing" textLength="95" x="487.5" y="532.5889">String height</text><ellipse cx="478.5" cy="545.5391" fill="none" rx="3" ry="3" style="stroke:#038048;stroke-width:1.0;"/><text fill="#000000" font-family="sans-serif" font-size="14" lengthAdjust="spacing" textLength="140" x="487.5" y="548.8857">String wakeUpTime</text><ellipse cx="478.5" cy="561.8359" fill="none" rx="3" ry="3" style="stroke:#038048;stroke-width:1.0;"/><text fill="#000000" font-family="sans-serif" font-size="14" lengthAdjust="spacing" textLength="205" x="487.5" y="565.1826">String? requiredWaterIntake</text><ellipse cx="478.5" cy="578.1328" fill="none" rx="3" ry="3" style="stroke:#038048;stroke-width:1.0;"/><text fill="#000000" font-family="sans-serif" font-size="14" lengthAdjust="spacing" textLength="142" x="487.5" y="581.4795">String? waterIntake</text><ellipse cx="478.5" cy="594.4297" fill="none" rx="3" ry="3" style="stroke:#038048;stroke-width:1.0;"/><text fill="#000000" font-family="sans-serif" font-size="14" lengthAdjust="spacing" textLength="163" x="487.5" y="597.7764">Genders? fetchGender</text><ellipse cx="478.5" cy="610.7266" fill="none" rx="3" ry="3" style="stroke:#038048;stroke-width:1.0;"/><text fill="#000000" font-family="sans-serif" font-size="14" lengthAdjust="spacing" textLength="139" x="487.5" y="614.0732">String fetchWeight</text><ellipse cx="478.5" cy="627.0234" fill="none" rx="3" ry="3" style="stroke:#038048;stroke-width:1.0;"/><text fill="#000000" font-family="sans-serif" font-size="14" lengthAdjust="spacing" textLength="135" x="487.5" y="630.3701">String fetchHeight</text><ellipse cx="478.5" cy="643.3203" fill="none" rx="3" ry="3" style="stroke:#038048;stroke-width:1.0;"/><text fill="#000000" font-family="sans-serif" font-size="14" lengthAdjust="spacing" textLength="123" x="487.5" y="646.667">String fetchTime</text><line style="stroke:#181818;stroke-width:0.5;" x1="468.5" x2="741.5" y1="653.9688" y2="653.9688"/><ellipse cx="478.5" cy="667.6172" fill="#84BE84" rx="3" ry="3" style="stroke:#038048;stroke-width:1.0;"/><text fill="#000000" font-family="sans-serif" font-size="14" lengthAdjust="spacing" textLength="148" x="487.5" y="670.9639">void updateGender()</text><ellipse cx="478.5" cy="683.9141" fill="#84BE84" rx="3" ry="3" style="stroke:#038048;stroke-width:1.0;"/><text fill="#000000" font-family="sans-serif" font-size="14" lengthAdjust="spacing" textLength="147" x="487.5" y="687.2607">void updateWeight()</text><ellipse cx="478.5" cy="700.2109" fill="#84BE84" rx="3" ry="3" style="stroke:#038048;stroke-width:1.0;"/><text fill="#000000" font-family="sans-serif" font-size="14" lengthAdjust="spacing" textLength="143" x="487.5" y="703.5576">void updateHeight()</text><ellipse cx="478.5" cy="716.5078" fill="#84BE84" rx="3" ry="3" style="stroke:#038048;stroke-width:1.0;"/><text fill="#000000" font-family="sans-serif" font-size="14" lengthAdjust="spacing" textLength="190" x="487.5" y="719.8545">void updateWakeUpTime()</text><ellipse cx="478.5" cy="732.8047" fill="#84BE84" rx="3" ry="3" style="stroke:#038048;stroke-width:1.0;"/><text fill="#000000" font-family="sans-serif" font-size="14" lengthAdjust="spacing" textLength="249" x="487.5" y="736.1514">void updateRequiredWaterIntake()</text></g><!--class IntakeCalculator--><g id="elem_IntakeCalculator"><rect codeLine="122" fill="#F1F1F1" height="64.2969" id="IntakeCalculator" rx="2.5" ry="2.5" style="stroke:#181818;stroke-width:0.5;" width="150" x="253" y="565"/><ellipse cx="268" cy="581" fill="#ADD1B2" rx="11" ry="11" style="stroke:#181818;stroke-width:1.0;"/><path d="M270.3438,576.6719 C269.4063,576.2344 268.8125,576.0938 267.9375,576.0938 C265.3125,576.0938 263.3125,578.1719 263.3125,580.8906 L263.3125,582.0156 C263.3125,584.5938 265.4219,586.4844 268.3125,586.4844 C269.5313,586.4844 270.6875,586.1875 271.4375,585.6406 C272.0156,585.2344 272.3438,584.7813 272.3438,584.3906 C272.3438,583.9375 271.9531,583.5469 271.4844,583.5469 C271.2656,583.5469 271.0625,583.625 270.875,583.8125 C270.4219,584.2969 270.4219,584.2969 270.2344,584.3906 C269.8125,584.6563 269.125,584.7813 268.3594,584.7813 C266.3125,584.7813 265.0156,583.6875 265.0156,581.9844 L265.0156,580.8906 C265.0156,579.1094 266.2656,577.7969 268,577.7969 C268.5781,577.7969 269.1875,577.9531 269.6563,578.2031 C270.1406,578.4844 270.3125,578.7031 270.4063,579.1094 C270.4688,579.5156 270.5,579.6406 270.6406,579.7656 C270.7813,579.9063 271.0156,580.0156 271.2344,580.0156 C271.5,580.0156 271.7656,579.875 271.9375,579.6563 C272.0469,579.5 272.0781,579.3125 272.0781,578.8906 L272.0781,577.4688 C272.0781,577.0313 272.0625,576.9063 271.9688,576.75 C271.8125,576.4844 271.5313,576.3438 271.2344,576.3438 C270.9375,576.3438 270.7344,576.4375 270.5156,576.75 L270.3438,576.6719 Z " fill="#000000"/><text fill="#000000" font-family="sans-serif" font-size="14" lengthAdjust="spacing" textLength="118" x="282" y="585.8467">IntakeCalculator</text><line style="stroke:#181818;stroke-width:0.5;" x1="254" x2="402" y1="597" y2="597"/><line style="stroke:#181818;stroke-width:0.5;" x1="254" x2="402" y1="605" y2="605"/><ellipse cx="264" cy="618.6484" fill="#84BE84" rx="3" ry="3" style="stroke:#038048;stroke-width:1.0;"/><text fill="#000000" font-family="sans-serif" font-size="14" lengthAdjust="spacing" text-decoration="underline" textLength="93" x="273" y="621.9951">String hello()</text></g><!--class Icon--><g id="elem_Icon"><rect fill="#F1F1F1" height="48" id="Icon" rx="2.5" ry="2.5" style="stroke:#181818;stroke-width:0.5;" width="62" x="2996" y="170"/><ellipse cx="3011" cy="186" fill="#ADD1B2" rx="11" ry="11" style="stroke:#181818;stroke-width:1.0;"/><path d="M3013.3438,181.6719 C3012.4063,181.2344 3011.8125,181.0938 3010.9375,181.0938 C3008.3125,181.0938 3006.3125,183.1719 3006.3125,185.8906 L3006.3125,187.0156 C3006.3125,189.5938 3008.4219,191.4844 3011.3125,191.4844 C3012.5313,191.4844 3013.6875,191.1875 3014.4375,190.6406 C3015.0156,190.2344 3015.3438,189.7813 3015.3438,189.3906 C3015.3438,188.9375 3014.9531,188.5469 3014.4844,188.5469 C3014.2656,188.5469 3014.0625,188.625 3013.875,188.8125 C3013.4219,189.2969 3013.4219,189.2969 3013.2344,189.3906 C3012.8125,189.6563 3012.125,189.7813 3011.3594,189.7813 C3009.3125,189.7813 3008.0156,188.6875 3008.0156,186.9844 L3008.0156,185.8906 C3008.0156,184.1094 3009.2656,182.7969 3011,182.7969 C3011.5781,182.7969 3012.1875,182.9531 3012.6563,183.2031 C3013.1406,183.4844 3013.3125,183.7031 3013.4063,184.1094 C3013.4688,184.5156 3013.5,184.6406 3013.6406,184.7656 C3013.7813,184.9063 3014.0156,185.0156 3014.2344,185.0156 C3014.5,185.0156 3014.7656,184.875 3014.9375,184.6563 C3015.0469,184.5 3015.0781,184.3125 3015.0781,183.8906 L3015.0781,182.4688 C3015.0781,182.0313 3015.0625,181.9063 3014.9688,181.75 C3014.8125,181.4844 3014.5313,181.3438 3014.2344,181.3438 C3013.9375,181.3438 3013.7344,181.4375 3013.5156,181.75 L3013.3438,181.6719 Z " fill="#000000"/><text fill="#000000" font-family="sans-serif" font-size="14" lengthAdjust="spacing" textLength="30" x="3025" y="190.8467">Icon</text><line style="stroke:#181818;stroke-width:0.5;" x1="2997" x2="3057" y1="202" y2="202"/><line style="stroke:#181818;stroke-width:0.5;" x1="2997" x2="3057" y1="210" y2="210"/></g><!--class StatefulWidget--><g id="elem_StatefulWidget"><rect fill="#F1F1F1" height="48" id="StatefulWidget" rx="2.5" ry="2.5" style="stroke:#181818;stroke-width:0.5;" width="142" x="2611" y="170"/><ellipse cx="2626" cy="186" fill="#ADD1B2" rx="11" ry="11" style="stroke:#181818;stroke-width:1.0;"/><path d="M2628.3438,181.6719 C2627.4063,181.2344 2626.8125,181.0938 2625.9375,181.0938 C2623.3125,181.0938 2621.3125,183.1719 2621.3125,185.8906 L2621.3125,187.0156 C2621.3125,189.5938 2623.4219,191.4844 2626.3125,191.4844 C2627.5313,191.4844 2628.6875,191.1875 2629.4375,190.6406 C2630.0156,190.2344 2630.3438,189.7813 2630.3438,189.3906 C2630.3438,188.9375 2629.9531,188.5469 2629.4844,188.5469 C2629.2656,188.5469 2629.0625,188.625 2628.875,188.8125 C2628.4219,189.2969 2628.4219,189.2969 2628.2344,189.3906 C2627.8125,189.6563 2627.125,189.7813 2626.3594,189.7813 C2624.3125,189.7813 2623.0156,188.6875 2623.0156,186.9844 L2623.0156,185.8906 C2623.0156,184.1094 2624.2656,182.7969 2626,182.7969 C2626.5781,182.7969 2627.1875,182.9531 2627.6563,183.2031 C2628.1406,183.4844 2628.3125,183.7031 2628.4063,184.1094 C2628.4688,184.5156 2628.5,184.6406 2628.6406,184.7656 C2628.7813,184.9063 2629.0156,185.0156 2629.2344,185.0156 C2629.5,185.0156 2629.7656,184.875 2629.9375,184.6563 C2630.0469,184.5 2630.0781,184.3125 2630.0781,183.8906 L2630.0781,182.4688 C2630.0781,182.0313 2630.0625,181.9063 2629.9688,181.75 C2629.8125,181.4844 2629.5313,181.3438 2629.2344,181.3438 C2628.9375,181.3438 2628.7344,181.4375 2628.5156,181.75 L2628.3438,181.6719 Z " fill="#000000"/><text fill="#000000" font-family="sans-serif" font-size="14" lengthAdjust="spacing" textLength="110" x="2640" y="190.8467">StatefulWidget</text><line style="stroke:#181818;stroke-width:0.5;" x1="2612" x2="2752" y1="202" y2="202"/><line style="stroke:#181818;stroke-width:0.5;" x1="2612" x2="2752" y1="210" y2="210"/></g><!--class State--><g id="elem_State"><rect fill="#F1F1F1" height="48" id="State" rx="2.5" ry="2.5" style="stroke:#181818;stroke-width:0.5;" width="72" x="2504" y="170"/><ellipse cx="2519" cy="186" fill="#ADD1B2" rx="11" ry="11" style="stroke:#181818;stroke-width:1.0;"/><path d="M2521.3438,181.6719 C2520.4063,181.2344 2519.8125,181.0938 2518.9375,181.0938 C2516.3125,181.0938 2514.3125,183.1719 2514.3125,185.8906 L2514.3125,187.0156 C2514.3125,189.5938 2516.4219,191.4844 2519.3125,191.4844 C2520.5313,191.4844 2521.6875,191.1875 2522.4375,190.6406 C2523.0156,190.2344 2523.3438,189.7813 2523.3438,189.3906 C2523.3438,188.9375 2522.9531,188.5469 2522.4844,188.5469 C2522.2656,188.5469 2522.0625,188.625 2521.875,188.8125 C2521.4219,189.2969 2521.4219,189.2969 2521.2344,189.3906 C2520.8125,189.6563 2520.125,189.7813 2519.3594,189.7813 C2517.3125,189.7813 2516.0156,188.6875 2516.0156,186.9844 L2516.0156,185.8906 C2516.0156,184.1094 2517.2656,182.7969 2519,182.7969 C2519.5781,182.7969 2520.1875,182.9531 2520.6563,183.2031 C2521.1406,183.4844 2521.3125,183.7031 2521.4063,184.1094 C2521.4688,184.5156 2521.5,184.6406 2521.6406,184.7656 C2521.7813,184.9063 2522.0156,185.0156 2522.2344,185.0156 C2522.5,185.0156 2522.7656,184.875 2522.9375,184.6563 C2523.0469,184.5 2523.0781,184.3125 2523.0781,183.8906 L2523.0781,182.4688 C2523.0781,182.0313 2523.0625,181.9063 2522.9688,181.75 C2522.8125,181.4844 2522.5313,181.3438 2522.2344,181.3438 C2521.9375,181.3438 2521.7344,181.4375 2521.5156,181.75 L2521.3438,181.6719 Z " fill="#000000"/><text fill="#000000" font-family="sans-serif" font-size="14" lengthAdjust="spacing" textLength="40" x="2533" y="190.8467">State</text><line style="stroke:#181818;stroke-width:0.5;" x1="2505" x2="2575" y1="202" y2="202"/><line style="stroke:#181818;stroke-width:0.5;" x1="2505" x2="2575" y1="210" y2="210"/></g><!--class StatelessWidget--><g id="elem_StatelessWidget"><rect fill="#F1F1F1" height="48" id="StatelessWidget" rx="2.5" ry="2.5" style="stroke:#181818;stroke-width:0.5;" width="151" x="2788.5" y="170"/><ellipse cx="2803.5" cy="186" fill="#ADD1B2" rx="11" ry="11" style="stroke:#181818;stroke-width:1.0;"/><path d="M2805.8438,181.6719 C2804.9063,181.2344 2804.3125,181.0938 2803.4375,181.0938 C2800.8125,181.0938 2798.8125,183.1719 2798.8125,185.8906 L2798.8125,187.0156 C2798.8125,189.5938 2800.9219,191.4844 2803.8125,191.4844 C2805.0313,191.4844 2806.1875,191.1875 2806.9375,190.6406 C2807.5156,190.2344 2807.8438,189.7813 2807.8438,189.3906 C2807.8438,188.9375 2807.4531,188.5469 2806.9844,188.5469 C2806.7656,188.5469 2806.5625,188.625 2806.375,188.8125 C2805.9219,189.2969 2805.9219,189.2969 2805.7344,189.3906 C2805.3125,189.6563 2804.625,189.7813 2803.8594,189.7813 C2801.8125,189.7813 2800.5156,188.6875 2800.5156,186.9844 L2800.5156,185.8906 C2800.5156,184.1094 2801.7656,182.7969 2803.5,182.7969 C2804.0781,182.7969 2804.6875,182.9531 2805.1563,183.2031 C2805.6406,183.4844 2805.8125,183.7031 2805.9063,184.1094 C2805.9688,184.5156 2806,184.6406 2806.1406,184.7656 C2806.2813,184.9063 2806.5156,185.0156 2806.7344,185.0156 C2807,185.0156 2807.2656,184.875 2807.4375,184.6563 C2807.5469,184.5 2807.5781,184.3125 2807.5781,183.8906 L2807.5781,182.4688 C2807.5781,182.0313 2807.5625,181.9063 2807.4688,181.75 C2807.3125,181.4844 2807.0313,181.3438 2806.7344,181.3438 C2806.4375,181.3438 2806.2344,181.4375 2806.0156,181.75 L2805.8438,181.6719 Z " fill="#000000"/><text fill="#000000" font-family="sans-serif" font-size="14" lengthAdjust="spacing" textLength="119" x="2817.5" y="190.8467">StatelessWidget</text><line style="stroke:#181818;stroke-width:0.5;" x1="2789.5" x2="2938.5" y1="202" y2="202"/><line style="stroke:#181818;stroke-width:0.5;" x1="2789.5" x2="2938.5" y1="210" y2="210"/></g><!--class TextEditingController--><g id="elem_TextEditingController"><rect fill="#F1F1F1" height="48" id="TextEditingController" rx="2.5" ry="2.5" style="stroke:#181818;stroke-width:0.5;" width="189" x="2258.5" y="170"/><ellipse cx="2273.5" cy="186" fill="#ADD1B2" rx="11" ry="11" style="stroke:#181818;stroke-width:1.0;"/><path d="M2275.8438,181.6719 C2274.9063,181.2344 2274.3125,181.0938 2273.4375,181.0938 C2270.8125,181.0938 2268.8125,183.1719 2268.8125,185.8906 L2268.8125,187.0156 C2268.8125,189.5938 2270.9219,191.4844 2273.8125,191.4844 C2275.0313,191.4844 2276.1875,191.1875 2276.9375,190.6406 C2277.5156,190.2344 2277.8438,189.7813 2277.8438,189.3906 C2277.8438,188.9375 2277.4531,188.5469 2276.9844,188.5469 C2276.7656,188.5469 2276.5625,188.625 2276.375,188.8125 C2275.9219,189.2969 2275.9219,189.2969 2275.7344,189.3906 C2275.3125,189.6563 2274.625,189.7813 2273.8594,189.7813 C2271.8125,189.7813 2270.5156,188.6875 2270.5156,186.9844 L2270.5156,185.8906 C2270.5156,184.1094 2271.7656,182.7969 2273.5,182.7969 C2274.0781,182.7969 2274.6875,182.9531 2275.1563,183.2031 C2275.6406,183.4844 2275.8125,183.7031 2275.9063,184.1094 C2275.9688,184.5156 2276,184.6406 2276.1406,184.7656 C2276.2813,184.9063 2276.5156,185.0156 2276.7344,185.0156 C2277,185.0156 2277.2656,184.875 2277.4375,184.6563 C2277.5469,184.5 2277.5781,184.3125 2277.5781,183.8906 L2277.5781,182.4688 C2277.5781,182.0313 2277.5625,181.9063 2277.4688,181.75 C2277.3125,181.4844 2277.0313,181.3438 2276.7344,181.3438 C2276.4375,181.3438 2276.2344,181.4375 2276.0156,181.75 L2275.8438,181.6719 Z " fill="#000000"/><text fill="#000000" font-family="sans-serif" font-size="14" lengthAdjust="spacing" textLength="157" x="2287.5" y="190.8467">TextEditingController</text><line style="stroke:#181818;stroke-width:0.5;" x1="2259.5" x2="2446.5" y1="202" y2="202"/><line style="stroke:#181818;stroke-width:0.5;" x1="2259.5" x2="2446.5" y1="210" y2="210"/></g><!--class ChangeNotifier--><g id="elem_ChangeNotifier"><rect fill="#F1F1F1" height="48" id="ChangeNotifier" rx="2.5" ry="2.5" style="stroke:#181818;stroke-width:0.5;" width="141" x="2004.5" y="170"/><ellipse cx="2019.5" cy="186" fill="#ADD1B2" rx="11" ry="11" style="stroke:#181818;stroke-width:1.0;"/><path d="M2021.8438,181.6719 C2020.9063,181.2344 2020.3125,181.0938 2019.4375,181.0938 C2016.8125,181.0938 2014.8125,183.1719 2014.8125,185.8906 L2014.8125,187.0156 C2014.8125,189.5938 2016.9219,191.4844 2019.8125,191.4844 C2021.0313,191.4844 2022.1875,191.1875 2022.9375,190.6406 C2023.5156,190.2344 2023.8438,189.7813 2023.8438,189.3906 C2023.8438,188.9375 2023.4531,188.5469 2022.9844,188.5469 C2022.7656,188.5469 2022.5625,188.625 2022.375,188.8125 C2021.9219,189.2969 2021.9219,189.2969 2021.7344,189.3906 C2021.3125,189.6563 2020.625,189.7813 2019.8594,189.7813 C2017.8125,189.7813 2016.5156,188.6875 2016.5156,186.9844 L2016.5156,185.8906 C2016.5156,184.1094 2017.7656,182.7969 2019.5,182.7969 C2020.0781,182.7969 2020.6875,182.9531 2021.1563,183.2031 C2021.6406,183.4844 2021.8125,183.7031 2021.9063,184.1094 C2021.9688,184.5156 2022,184.6406 2022.1406,184.7656 C2022.2813,184.9063 2022.5156,185.0156 2022.7344,185.0156 C2023,185.0156 2023.2656,184.875 2023.4375,184.6563 C2023.5469,184.5 2023.5781,184.3125 2023.5781,183.8906 L2023.5781,182.4688 C2023.5781,182.0313 2023.5625,181.9063 2023.4688,181.75 C2023.3125,181.4844 2023.0313,181.3438 2022.7344,181.3438 C2022.4375,181.3438 2022.2344,181.4375 2022.0156,181.75 L2021.8438,181.6719 Z " fill="#000000"/><text fill="#000000" font-family="sans-serif" font-size="14" lengthAdjust="spacing" textLength="109" x="2033.5" y="190.8467">ChangeNotifier</text><line style="stroke:#181818;stroke-width:0.5;" x1="2005.5" x2="2144.5" y1="202" y2="202"/><line style="stroke:#181818;stroke-width:0.5;" x1="2005.5" x2="2144.5" y1="210" y2="210"/></g><!--class Enum--><g id="elem_Enum"><rect fill="#F1F1F1" height="48" id="Enum" rx="2.5" ry="2.5" style="stroke:#181818;stroke-width:0.5;" width="72" x="46" y="573"/><ellipse cx="61" cy="589" fill="#ADD1B2" rx="11" ry="11" style="stroke:#181818;stroke-width:1.0;"/><path d="M63.3438,584.6719 C62.4063,584.2344 61.8125,584.0938 60.9375,584.0938 C58.3125,584.0938 56.3125,586.1719 56.3125,588.8906 L56.3125,590.0156 C56.3125,592.5938 58.4219,594.4844 61.3125,594.4844 C62.5313,594.4844 63.6875,594.1875 64.4375,593.6406 C65.0156,593.2344 65.3438,592.7813 65.3438,592.3906 C65.3438,591.9375 64.9531,591.5469 64.4844,591.5469 C64.2656,591.5469 64.0625,591.625 63.875,591.8125 C63.4219,592.2969 63.4219,592.2969 63.2344,592.3906 C62.8125,592.6563 62.125,592.7813 61.3594,592.7813 C59.3125,592.7813 58.0156,591.6875 58.0156,589.9844 L58.0156,588.8906 C58.0156,587.1094 59.2656,585.7969 61,585.7969 C61.5781,585.7969 62.1875,585.9531 62.6563,586.2031 C63.1406,586.4844 63.3125,586.7031 63.4063,587.1094 C63.4688,587.5156 63.5,587.6406 63.6406,587.7656 C63.7813,587.9063 64.0156,588.0156 64.2344,588.0156 C64.5,588.0156 64.7656,587.875 64.9375,587.6563 C65.0469,587.5 65.0781,587.3125 65.0781,586.8906 L65.0781,585.4688 C65.0781,585.0313 65.0625,584.9063 64.9688,584.75 C64.8125,584.4844 64.5313,584.3438 64.2344,584.3438 C63.9375,584.3438 63.7344,584.4375 63.5156,584.75 L63.3438,584.6719 Z " fill="#000000"/><text fill="#000000" font-family="sans-serif" font-size="14" lengthAdjust="spacing" textLength="40" x="75" y="593.8467">Enum</text><line style="stroke:#181818;stroke-width:0.5;" x1="47" x2="117" y1="605" y2="605"/><line style="stroke:#181818;stroke-width:0.5;" x1="47" x2="117" y1="613" y2="613"/></g><!--class dynamic Function(Genders)--><g id="elem_dynamic Function(Genders)"><rect fill="#F1F1F1" height="48" id="dynamic Function(Genders)" rx="2.5" ry="2.5" style="stroke:#181818;stroke-width:0.5;" width="228" x="4956" y="843.5"/><ellipse cx="4971" cy="859.5" fill="#ADD1B2" rx="11" ry="11" style="stroke:#181818;stroke-width:1.0;"/><path d="M4973.3438,855.1719 C4972.4063,854.7344 4971.8125,854.5938 4970.9375,854.5938 C4968.3125,854.5938 4966.3125,856.6719 4966.3125,859.3906 L4966.3125,860.5156 C4966.3125,863.0938 4968.4219,864.9844 4971.3125,864.9844 C4972.5313,864.9844 4973.6875,864.6875 4974.4375,864.1406 C4975.0156,863.7344 4975.3438,863.2813 4975.3438,862.8906 C4975.3438,862.4375 4974.9531,862.0469 4974.4844,862.0469 C4974.2656,862.0469 4974.0625,862.125 4973.875,862.3125 C4973.4219,862.7969 4973.4219,862.7969 4973.2344,862.8906 C4972.8125,863.1563 4972.125,863.2813 4971.3594,863.2813 C4969.3125,863.2813 4968.0156,862.1875 4968.0156,860.4844 L4968.0156,859.3906 C4968.0156,857.6094 4969.2656,856.2969 4971,856.2969 C4971.5781,856.2969 4972.1875,856.4531 4972.6563,856.7031 C4973.1406,856.9844 4973.3125,857.2031 4973.4063,857.6094 C4973.4688,858.0156 4973.5,858.1406 4973.6406,858.2656 C4973.7813,858.4063 4974.0156,858.5156 4974.2344,858.5156 C4974.5,858.5156 4974.7656,858.375 4974.9375,858.1563 C4975.0469,858 4975.0781,857.8125 4975.0781,857.3906 L4975.0781,855.9688 C4975.0781,855.5313 4975.0625,855.4063 4974.9688,855.25 C4974.8125,854.9844 4974.5313,854.8438 4974.2344,854.8438 C4973.9375,854.8438 4973.7344,854.9375 4973.5156,855.25 L4973.3438,855.1719 Z " fill="#000000"/><text fill="#000000" font-family="sans-serif" font-size="14" lengthAdjust="spacing" textLength="196" x="4985" y="864.3467">dynamic Function(Genders)</text><line style="stroke:#181818;stroke-width:0.5;" x1="4957" x2="5183" y1="875.5" y2="875.5"/><line style="stroke:#181818;stroke-width:0.5;" x1="4957" x2="5183" y1="883.5" y2="883.5"/></g><!--class dynamic Function(String)--><g id="elem_dynamic Function(String)"><rect fill="#F1F1F1" height="48" id="dynamic Function(String)" rx="2.5" ry="2.5" style="stroke:#181818;stroke-width:0.5;" width="212" x="5219" y="843.5"/><ellipse cx="5234" cy="859.5" fill="#ADD1B2" rx="11" ry="11" style="stroke:#181818;stroke-width:1.0;"/><path d="M5236.3438,855.1719 C5235.4063,854.7344 5234.8125,854.5938 5233.9375,854.5938 C5231.3125,854.5938 5229.3125,856.6719 5229.3125,859.3906 L5229.3125,860.5156 C5229.3125,863.0938 5231.4219,864.9844 5234.3125,864.9844 C5235.5313,864.9844 5236.6875,864.6875 5237.4375,864.1406 C5238.0156,863.7344 5238.3438,863.2813 5238.3438,862.8906 C5238.3438,862.4375 5237.9531,862.0469 5237.4844,862.0469 C5237.2656,862.0469 5237.0625,862.125 5236.875,862.3125 C5236.4219,862.7969 5236.4219,862.7969 5236.2344,862.8906 C5235.8125,863.1563 5235.125,863.2813 5234.3594,863.2813 C5232.3125,863.2813 5231.0156,862.1875 5231.0156,860.4844 L5231.0156,859.3906 C5231.0156,857.6094 5232.2656,856.2969 5234,856.2969 C5234.5781,856.2969 5235.1875,856.4531 5235.6563,856.7031 C5236.1406,856.9844 5236.3125,857.2031 5236.4063,857.6094 C5236.4688,858.0156 5236.5,858.1406 5236.6406,858.2656 C5236.7813,858.4063 5237.0156,858.5156 5237.2344,858.5156 C5237.5,858.5156 5237.7656,858.375 5237.9375,858.1563 C5238.0469,858 5238.0781,857.8125 5238.0781,857.3906 L5238.0781,855.9688 C5238.0781,855.5313 5238.0625,855.4063 5237.9688,855.25 C5237.8125,854.9844 5237.5313,854.8438 5237.2344,854.8438 C5236.9375,854.8438 5236.7344,854.9375 5236.5156,855.25 L5236.3438,855.1719 Z " fill="#000000"/><text fill="#000000" font-family="sans-serif" font-size="14" lengthAdjust="spacing" textLength="180" x="5248" y="864.3467">dynamic Function(String)</text><line style="stroke:#181818;stroke-width:0.5;" x1="5220" x2="5430" y1="875.5" y2="875.5"/><line style="stroke:#181818;stroke-width:0.5;" x1="5220" x2="5430" y1="883.5" y2="883.5"/></g><!--reverse link PersonalDataCardModel to Icon--><g id="link_PersonalDataCardModel_Icon"><path codeLine="10" d="M4683.4633,529.4516 C4653.9233,464.6376 4600.49,371.099 4514,322 C4382.89,247.57 3261.02,203.501 3058.32,196.111 " fill="none" id="PersonalDataCardModel-backto-Icon" style="stroke:#181818;stroke-width:1.0;"/><polygon fill="none" points="4688.44,540.371,4689.5915,533.2524,4683.4633,529.4516,4682.3119,536.5702,4688.44,540.371" style="stroke:#181818;stroke-width:1.0;"/></g><!--reverse link PersonalDataCardModel to EntryFieldType--><g id="link_PersonalDataCardModel_EntryFieldType"><path codeLine="11" d="M4712.7618,665.6289 C4713.8918,709.0989 4715.16,757.553 4716.34,802.93 " fill="none" id="PersonalDataCardModel-backto-EntryFieldType" style="stroke:#181818;stroke-width:1.0;"/><polygon fill="none" points="4712.45,653.633,4708.6073,659.7349,4712.7618,665.6289,4716.6046,659.527,4712.45,653.633" style="stroke:#181818;stroke-width:1.0;"/></g><!--reverse link EntryFieldType to EntryFieldType--><g id="link_EntryFieldType_EntryFieldType"><path codeLine="21" d="M4845.2641,823.4545 C4865.7141,829.7165 4868.5,842.056 4868.5,867.5 C4868.5,892.944 4854.24,908.797 4833.79,915.059 " fill="none" id="EntryFieldType-backto-EntryFieldType" style="stroke:#181818;stroke-width:1.0;"/><polygon fill="none" points="4833.79,819.941,4838.3559,825.5225,4845.2641,823.4545,4840.6982,817.873,4833.79,819.941" style="stroke:#181818;stroke-width:1.0;"/></g><!--reverse link Enum to EntryFieldType--><g id="link_Enum_EntryFieldType"><path codeLine="22" d="M103.9169,636.6416 C126.6599,675.1766 169.094,735.791 237,766.5 C339.433,812.824 3910.36,857.024 4602.48,865.166 " fill="none" id="Enum-backto-EntryFieldType" style="stroke:#181818;stroke-width:1.0;"/><polygon fill="none" points="94.768,621.14,98.7497,639.6912,109.0841,633.5919,94.768,621.14" style="stroke:#181818;stroke-width:1.0;"/></g><!--reverse link StatefulWidget to ShowCalculatedIntake--><g id="link_StatefulWidget_ShowCalculatedIntake"><path codeLine="29" d="M2698.9335,234.4375 C2712.0235,262.9805 2731.15,293.896 2771,314 C2804.75,331.029 4098.51,304.45 4132,322 C4227.44,372.017 4285.38,493.415 4310.05,556.485 " fill="none" id="StatefulWidget-backto-ShowCalculatedIntake" style="stroke:#181818;stroke-width:1.0;"/><polygon fill="none" points="2691.43,218.076,2693.4797,236.9386,2704.3873,231.9363,2691.43,218.076" style="stroke:#181818;stroke-width:1.0;"/></g><!--reverse link State to _ShowCalculatedIntakeState--><g id="link_State__ShowCalculatedIntakeState"><path codeLine="35" d="M2545.9153,235.8908 C2550.7653,264.0498 2560.44,292.711 2593,314 C2621.92,332.912 3807.11,304.659 3837,322 C3929.29,375.544 3973.01,505.288 3988.78,564.992 " fill="none" id="State-backto-_ShowCalculatedIntakeState" style="stroke:#181818;stroke-width:1.0;"/><polygon fill="none" points="2542.86,218.152,2540.0023,236.9092,2551.8282,234.8724,2542.86,218.152" style="stroke:#181818;stroke-width:1.0;"/></g><!--reverse link StatelessWidget to Waterlog--><g id="link_StatelessWidget_Waterlog"><path codeLine="41" d="M2888.1736,233.2069 C2907.2436,261.8989 2934.12,294.341 2980,314 C2997.77,321.615 3660.58,310.339 3676,322 C3752.36,379.742 3759.62,506.155 3758.57,564.876 " fill="none" id="StatelessWidget-backto-Waterlog" style="stroke:#181818;stroke-width:1.0;"/><polygon fill="none" points="2878.21,218.216,2883.1767,236.5281,2893.1706,229.8857,2878.21,218.216" style="stroke:#181818;stroke-width:1.0;"/></g><!--reverse link StatelessWidget to NextButton--><g id="link_StatelessWidget_NextButton"><path codeLine="47" d="M2888.1949,233.1693 C2907.2749,261.8293 2934.16,294.246 2980,314 C3006.07,325.237 3467.76,305.692 3491,322 C3571.39,378.404 3589.68,505.496 3593.81,564.633 " fill="none" id="StatelessWidget-backto-NextButton" style="stroke:#181818;stroke-width:1.0;"/><polygon fill="none" points="2878.22,218.186,2883.2005,236.4943,2893.1894,229.8444,2878.22,218.186" style="stroke:#181818;stroke-width:1.0;"/></g><!--reverse link StatefulWidget to WaterIntakeTracker--><g id="link_StatefulWidget_WaterIntakeTracker"><path codeLine="53" d="M2699.2984,234.7919 C2712.5184,263.2729 2731.55,293.679 2771,314 C2805.78,331.915 3088.66,303.25 3123,322 C3220.73,375.367 3276.58,505.202 3297.9,564.961 " fill="none" id="StatefulWidget-backto-WaterIntakeTracker" style="stroke:#181818;stroke-width:1.0;"/><polygon fill="none" points="2691.72,218.465,2693.8561,237.318,2704.7407,232.2657,2691.72,218.465" style="stroke:#181818;stroke-width:1.0;"/></g><!--reverse link State to _WaterIntakeTrackerState--><g id="link_State__WaterIntakeTrackerState"><path codeLine="60" d="M2546.0934,235.7252 C2551.0434,263.7262 2560.76,292.239 2593,314 C2613.74,327.994 2796.26,309.62 2818,322 C2908.89,373.761 2960.33,493.803 2981.87,556.407 " fill="none" id="State-backto-_WaterIntakeTrackerState" style="stroke:#181818;stroke-width:1.0;"/><polygon fill="none" points="2542.96,218,2540.1851,236.7696,2552.0018,234.6807,2542.96,218" style="stroke:#181818;stroke-width:1.0;"/></g><!--reverse link StatefulWidget to PersonalDetailsEntry--><g id="link_StatefulWidget_PersonalDetailsEntry"><path codeLine="66" d="M2665.0537,234.4232 C2651.9637,262.9532 2632.83,293.856 2593,314 C2567.79,326.75 1601.28,309.398 1576,322 C1471.94,373.865 1405,504.475 1378.67,564.697 " fill="none" id="StatefulWidget-backto-PersonalDetailsEntry" style="stroke:#181818;stroke-width:1.0;"/><polygon fill="none" points="2672.56,218.063,2659.6003,231.9211,2670.5071,236.9253,2672.56,218.063" style="stroke:#181818;stroke-width:1.0;"/></g><!--reverse link _PersonalDetailsEntryState to Genders--><g id="link__PersonalDetailsEntryState_Genders"><path codeLine="80" d="M868.8116,701.4556 C813.1986,740.5456 760.801,777.374 713.031,810.951 " fill="none" id="_PersonalDetailsEntryState-backto-Genders" style="stroke:#181818;stroke-width:1.0;"/><polygon fill="none" points="878.629,694.555,871.4201,694.7328,868.8116,701.4556,876.0205,701.2778,878.629,694.555" style="stroke:#181818;stroke-width:1.0;"/></g><!--reverse link State to _PersonalDetailsEntryState--><g id="link_State__PersonalDetailsEntryState"><path codeLine="81" d="M2526.6671,235.389 C2516.4471,263.852 2500.91,293.626 2464,314 C2432.75,331.249 1209.97,304.258 1179,322 C1112.72,359.966 1070.53,436.621 1045.72,499.221 " fill="none" id="State-backto-_PersonalDetailsEntryState" style="stroke:#181818;stroke-width:1.0;"/><polygon fill="none" points="2532.75,218.448,2521.0201,233.3614,2532.3141,237.4167,2532.75,218.448" style="stroke:#181818;stroke-width:1.0;"/></g><!--reverse link RadioOption to dynamic Function(Genders)--><g id="link_RadioOption_dynamic Function(Genders)"><path codeLine="90" d="M2041.7417,661.7927 C2083.8017,701.6367 2137.68,743.869 2204,766.5 C2344.08,814.301 4721.98,776.294 4868,800.5 C4919.14,808.977 4974.99,828.03 5014.98,843.495 " fill="none" id="RadioOption-backto-dynamic Function(Genders)" style="stroke:#181818;stroke-width:1.0;"/><polygon fill="none" points="2033.03,653.54,2034.6349,660.5702,2041.7417,661.7927,2040.1367,654.7625,2033.03,653.54" style="stroke:#181818;stroke-width:1.0;"/></g><!--reverse link RadioOption to Genders--><g id="link_RadioOption_Genders"><path codeLine="91" d="M1923.1466,662.4171 C1885.7266,701.2791 1838.75,741.774 1779,766.5 C1588.86,845.189 961.886,861.994 725.378,865.553 " fill="none" id="RadioOption-backto-Genders" style="stroke:#181818;stroke-width:1.0;"/><polygon fill="none" points="1931.47,653.773,1924.4269,655.3206,1923.1466,662.4171,1930.1897,660.8695,1931.47,653.773" style="stroke:#181818;stroke-width:1.0;"/></g><!--reverse link StatefulWidget to RadioOption--><g id="link_StatefulWidget_RadioOption"><path codeLine="92" d="M2664.7193,234.8095 C2651.5093,263.3045 2632.47,293.722 2593,314 C2554.55,333.756 2242.87,303.079 2204,322 C2109.67,367.918 2041.52,474.479 2006.59,540.358 " fill="none" id="StatefulWidget-backto-RadioOption" style="stroke:#181818;stroke-width:1.0;"/><polygon fill="none" points="2672.29,218.479,2659.2758,232.2859,2670.1628,237.333,2672.29,218.479" style="stroke:#181818;stroke-width:1.0;"/></g><!--reverse link _RadioOptionState to Genders--><g id="link__RadioOptionState_Genders"><path codeLine="100" d="M1649.9023,656.2306 C1629.3123,695.7226 1599.87,739.056 1552,766.5 C1412.57,846.431 928.435,862.498 725.072,865.708 " fill="none" id="_RadioOptionState-backto-Genders" style="stroke:#181818;stroke-width:1.0;"/><polygon fill="none" points="1655.45,645.59,1649.1293,649.0611,1649.9023,656.2306,1656.223,652.7595,1655.45,645.59" style="stroke:#181818;stroke-width:1.0;"/></g><!--reverse link State to _RadioOptionState--><g id="link_State__RadioOptionState"><path codeLine="101" d="M2526.6356,235.3519 C2516.4056,263.7819 2500.86,293.525 2464,314 C2430.73,332.481 1810.13,300.103 1779,322 C1705.62,373.62 1684.95,484.574 1679.18,548.323 " fill="none" id="State-backto-_RadioOptionState" style="stroke:#181818;stroke-width:1.0;"/><polygon fill="none" points="2532.73,218.415,2520.99,233.3204,2532.2812,237.3834,2532.73,218.415" style="stroke:#181818;stroke-width:1.0;"/></g><!--reverse link TextOption to dynamic Function(String)--><g id="link_TextOption_dynamic Function(String)"><path codeLine="111" d="M2725.245,670.3933 C2763.025,708.6223 2808.04,745.258 2866,766.5 C2987.87,811.16 5076.36,767.947 5202,800.5 C5234.84,809.01 5268.55,827.951 5292.35,843.369 " fill="none" id="TextOption-backto-dynamic Function(String)" style="stroke:#181818;stroke-width:1.0;"/><polygon fill="none" points="2716.81,661.858,2718.1824,668.9373,2725.245,670.3933,2723.8726,663.314,2716.81,661.858" style="stroke:#181818;stroke-width:1.0;"/></g><!--reverse link StatefulWidget to TextOption--><g id="link_StatefulWidget_TextOption"><path codeLine="112" d="M2679.8374,236.2683 C2676.6774,296.5273 2669.11,441.206 2664.34,532.188 " fill="none" id="StatefulWidget-backto-TextOption" style="stroke:#181818;stroke-width:1.0;"/><polygon fill="none" points="2680.78,218.293,2673.8456,235.9541,2685.8291,236.5825,2680.78,218.293" style="stroke:#181818;stroke-width:1.0;"/></g><!--reverse link _TextOptionState to TextEditingController--><g id="link__TextOptionState_TextEditingController"><path codeLine="119" d="M2353,544.187 C2353,461.276 2353,284.319 2353,218.293 " fill="none" id="_TextOptionState-backto-TextEditingController" style="stroke:#181818;stroke-width:1.0;"/><polygon fill="none" points="2353,556.187,2357,550.187,2353,544.187,2349,550.187,2353,556.187" style="stroke:#181818;stroke-width:1.0;"/></g><!--reverse link State to _TextOptionState--><g id="link_State__TextOptionState"><path codeLine="120" d="M2521.5326,234.6064 C2490.7426,300.6324 2410.23,473.276 2371.57,556.187 " fill="none" id="State-backto-_TextOptionState" style="stroke:#181818;stroke-width:1.0;"/><polygon fill="none" points="2529.14,218.293,2516.0948,232.0706,2526.9703,237.1422,2529.14,218.293" style="stroke:#181818;stroke-width:1.0;"/></g><!--reverse link UserProvider to Genders--><g id="link_UserProvider_Genders"><path codeLine="144" d="M621.9769,755.1826 C624.5799,779.2776 625.842,790.966 628.003,810.976 " fill="none" id="UserProvider-backto-Genders" style="stroke:#181818;stroke-width:1.0;"/><polygon fill="none" points="620.688,743.252,617.3556,749.6469,621.9769,755.1826,625.3093,748.7877,620.688,743.252" style="stroke:#181818;stroke-width:1.0;"/></g><!--reverse link ChangeNotifier to UserProvider--><g id="link_ChangeNotifier_UserProvider"><path codeLine="145" d="M1986.4923,196.1204 C1757.9423,199.8084 1058.65,219.206 855,322 C796.076,351.742 744.26,401.593 703.305,450.682 " fill="none" id="ChangeNotifier-backto-UserProvider" style="stroke:#181818;stroke-width:1.0;"/><polygon fill="none" points="2004.49,195.83,1986.3955,190.1212,1986.5891,202.1196,2004.49,195.83" style="stroke:#181818;stroke-width:1.0;"/></g><!--reverse link Genders to Genders--><g id="link_Genders_Genders"><path codeLine="154" d="M736.8715,820.9243 C757.0205,825.5523 760,839.287 760,867.5 C760,895.713 745.325,912.1337 725.176,916.7624 " fill="none" id="Genders-backto-Genders" style="stroke:#181818;stroke-width:1.0;"/><polygon fill="none" points="725.176,818.238,730.1283,823.4796,736.8715,820.9243,731.9192,815.6827,725.176,818.238" style="stroke:#181818;stroke-width:1.0;"/></g><!--reverse link Enum to Genders--><g id="link_Enum_Genders"><path codeLine="155" d="M106.5623,635.9885 C130.9933,672.6155 173.814,728.887 237,766.5 C332.124,823.124 458.45,847.863 542.802,858.555 " fill="none" id="Enum-backto-Genders" style="stroke:#181818;stroke-width:1.0;"/><polygon fill="none" points="96.574,621.014,101.5708,639.3179,111.5538,632.659,96.574,621.014" style="stroke:#181818;stroke-width:1.0;"/></g><!--SRC=[pLZRRjiu47ttLn1wQX2a7o042NQzoWLDka7Yrlici29j4w55BKNP3RhzznrU9CkIREjYftqnh1doy71c3ZLYIXMAyPAc2Oxe2qsmn4f8vFkZKSHncY9lZHMLNCnzVoa8vQdl9rIc8iOy95ZXCCAIXCRraM2fVF_9kVy2xnYSZzhdeHyZXCxl8n5V8mQ_-Yc8bNoxOPIJoLj2aO8VRNvHaiLpf9ZYvfcy0KCMeHNc6Htz78sEnabSN21lnZC5SBwVoiZtrupCgG94JTBDrgoz8w_Q6MmxM5x__5I0R69Oh12B2VqE3pzIXHMBVgBp1vQgo-tnLpODwTQuIY9VWeTWFDatOXByizz__nWytOy_1S_zybtTut52xbbp92JLpcpfeSl_JfJCHDAKnZey8eRIN8WreF0eup22X90k_4eTs0iunuNlthXSMgsKhf71jHvhXkVBfdbNA98K7is83sSc-Zi4CfDmRgo5VCrfw2cpZ4_DW7feXkveM9329an3sONAqaRVCiP9ZuqFskyUSWTtdTiTrDGz7cTNdAPfktpkej6L_sVwNVq91E74_RKxA15fjmUNqb197BrIMGw4JUZ4EWffQWtMtU-cm6waXyGWhEELbKT4zetJwXbrOZtseNiu1Zab3Y_ESCNeEZJy2-YY8w0ACvwQry1MFJGDUB-Aw4L_U5J29jnoXPW-fB6Rka9CqQNkHivlAVGlChr6S_Edr4ckAPilLCcmg1eKMvgYMmb6a8Wjr7Y1updLnRVnJCtC9izTtTDGmYU9KQMxIQbSiOW2M0P_mqIA5Ti0kJ1vHvRJ0Fxj2qXYmaGe4crskC_QzBUnRFKyzS-7cooEzB0FUQ6SLJEziugqCaiBDGboC7UJn3ZZtFTtCJxpZhNEQOkb-u5pWFIW2WbBIEL3fI7JHieiPYhFR4yHjsFnEycs5UFsQL3GF6sZJS3IJQPs08WKlgKCVcaMBBlwYdd9aa7MDcBThDPBg_lfxrEg8tromUnbE2HFuGQd99OBRGq8Kx2viO2ZMt1E9GgZudzVgRHXiE-QXW8f3ErZg85AeQYHFPLoMcoW8HyRiRiMDFyq5BdWRVyvBims4PiRawALuLpOOEzPfEb4-GAs9sVQVIIsRg7MmFPBCd6DL7xn8Ec_6PEKJAiN48tt4iNwCwgYnMsLXB5EgmiRwrsZTL9kwxA4m6eMjDIvMRD5hPdlcitJOgyrrtDzmpKfTCdBKLuICv75n1LkP7gTC1QApLWnqtP0dvsnNlmTA7Skn9prmPj8Dx3n2jBvqECV3q6ZuoOmhYwPA8ZrJCBXwy9sIFy3]--></g></svg>